<?xml version="1.0" standalone="no"?>
<!DOCTYPE svg PUBLIC "-//W3C//DTD SVG 20010904//EN"
 "http://www.w3.org/TR/2001/REC-SVG-20010904/DTD/svg10.dtd">
<svg version="1.0" xmlns="http://www.w3.org/2000/svg"
 width="850.000000pt" height="528.000000pt" viewBox="0 0 850.000000 528.000000"
 preserveAspectRatio="xMidYMid meet">
<metadata>
Created by potrace 1.16, written by Peter Selinger 2001-2019
</metadata>
<g transform="translate(0.000000,528.000000) scale(0.100000,-0.100000)"
fill="#FFFFFF" stroke="none">
<path d="M3039 4953 c-1 -5 -1 -11 0 -16 1 -4 -10 -5 -23 -1 -13 3 -27 1 -30
-5 -5 -7 -1 -8 11 -4 17 7 17 6 0 -12 -16 -15 -18 -27 -12 -73 4 -36 3 -52 -3
-48 -6 3 -13 2 -17 -4 -3 -5 1 -10 9 -10 9 0 16 -4 16 -10 0 -5 -7 -7 -15 -3
-9 3 -15 2 -14 -3 5 -31 -2 -36 -41 -31 -22 3 -40 1 -40 -4 0 -5 -11 -9 -25
-9 -14 0 -25 -5 -25 -11 0 -5 5 -7 10 -4 9 5 1 -18 -37 -111 -5 -13 -124 -32
-226 -36 -49 -2 -64 -5 -54 -13 8 -5 12 -16 10 -22 -3 -7 2 -16 11 -19 9 -3
13 -10 10 -15 -3 -5 -1 -9 5 -9 6 0 9 -17 6 -40 -2 -22 1 -42 6 -45 5 -4 3
-13 -5 -21 -11 -11 -35 -13 -103 -10 -48 2 -99 7 -113 10 -44 10 -90 37 -90
52 0 8 -7 17 -15 20 -8 4 -12 11 -8 17 3 5 1 7 -5 3 -6 -3 -22 -1 -37 6 -16 7
-29 8 -33 2 -4 -5 -14 -9 -22 -9 -8 0 -15 -6 -15 -13 0 -19 -28 -33 -38 -19
-6 8 -7 6 -3 -5 6 -19 -11 -77 -27 -93 -7 -7 -8 -4 -4 8 4 9 2 17 -3 17 -6 0
-10 -9 -10 -20 0 -11 6 -20 13 -20 8 0 7 -3 -3 -10 -8 -5 -11 -12 -8 -16 4 -3
2 -12 -5 -20 -7 -7 -25 -29 -42 -48 -16 -20 -35 -36 -42 -36 -6 0 -18 -6 -25
-13 -20 -20 -78 -47 -78 -36 0 5 -4 9 -10 9 -5 0 -6 -7 -3 -17 4 -11 3 -14 -5
-9 -7 4 -12 2 -12 -3 0 -6 -3 -10 -7 -9 -5 1 -17 -3 -28 -9 -11 -6 -22 -11
-25 -11 -14 0 -215 -102 -215 -109 0 -4 -3 -7 -7 -5 -5 1 -8 -2 -8 -8 0 -6 -5
-9 -12 -8 -7 2 -12 -2 -13 -9 0 -6 -4 -15 -9 -20 -6 -5 -6 -2 -1 7 5 9 5 12
-1 7 -5 -5 -9 -19 -9 -30 0 -13 -5 -21 -14 -19 -8 2 -11 -3 -8 -12 3 -8 3 -17
0 -20 -10 -9 -9 -75 1 -69 4 3 5 -5 1 -17 -5 -15 -4 -20 4 -16 17 11 13 -10
-4 -24 -8 -7 -15 -17 -15 -22 0 -5 7 -2 16 6 20 20 30 21 14 1 -7 -9 -10 -18
-6 -22 3 -3 6 -1 6 7 0 10 3 10 15 0 8 -7 12 -17 8 -24 -3 -6 0 -5 8 3 11 10
11 15 2 18 -20 7 -15 25 5 19 17 -6 137 -18 180 -18 12 0 22 -6 22 -14 0 -8 7
-17 15 -20 8 -4 15 -15 15 -26 0 -11 -5 -16 -11 -13 -6 4 -9 1 -7 -6 3 -14 -3
-19 -24 -19 -6 0 -4 8 6 19 11 12 15 25 10 33 -6 9 -10 6 -16 -12 -6 -20 -7
-19 -3 8 2 17 1 32 -4 32 -15 0 -18 -69 -4 -83 8 -8 11 -21 7 -31 -5 -14 -9
-15 -16 -4 -7 10 -8 8 -7 -7 3 -36 -1 -45 -16 -45 -13 0 -14 -4 -5 -20 8 -15
6 -29 -10 -62 -16 -33 -17 -44 -7 -56 10 -13 9 -15 -3 -10 -11 4 -16 -1 -18
-15 -1 -17 1 -19 8 -7 9 14 15 7 11 -14 -1 -5 5 -4 13 3 9 7 14 16 11 20 -2 4
19 9 48 10 39 2 49 -1 41 -9 -7 -7 -28 -12 -47 -13 -20 0 -34 -4 -31 -8 7 -12
-35 -31 -49 -23 -9 6 -9 4 1 -8 10 -13 10 -17 -5 -23 -10 -5 -21 -8 -25 -7 -4
1 -10 -8 -14 -21 -3 -12 -12 -29 -19 -37 -7 -8 -11 -22 -10 -30 6 -35 42 -95
62 -106 13 -6 20 -15 15 -20 -4 -4 0 -3 10 4 12 10 17 10 20 1 3 -8 41 -13
124 -14 65 -2 130 -5 144 -8 14 -2 35 -5 48 -6 15 -1 22 -7 22 -20 0 -11 5
-23 12 -27 7 -4 8 -3 4 4 -5 8 -2 10 9 6 22 -9 13 -30 -11 -26 -15 2 -16 1 -4
-7 10 -7 19 -6 28 2 26 21 42 -19 42 -104 0 -46 5 -81 11 -85 6 -3 9 -17 6
-30 -2 -13 -1 -21 3 -19 12 7 39 -40 31 -53 -5 -8 -23 -10 -52 -7 -74 9 -89
15 -89 32 0 14 -2 14 -14 -3 -14 -18 -15 -18 -21 -1 -4 9 -11 17 -17 17 -5 0
-6 -4 -3 -10 3 -5 2 -10 -4 -10 -6 0 -9 -20 -8 -45 2 -37 4 -42 13 -30 10 13
13 11 23 -15 6 -17 15 -29 21 -25 5 3 10 -1 10 -10 0 -11 5 -15 14 -12 23 9
38 -19 34 -62 -2 -22 1 -37 6 -34 5 3 7 0 5 -6 -3 -7 -8 -12 -13 -11 -5 1 -12
-4 -16 -10 -5 -9 -9 -9 -14 -1 -4 6 -2 11 3 11 6 0 11 5 11 11 0 8 -4 8 -14
-1 -8 -6 -13 -17 -10 -24 6 -15 -103 -69 -119 -60 -7 4 -9 4 -5 0 11 -13 -115
-73 -129 -63 -8 6 -13 5 -13 -2 0 -6 -16 3 -35 20 -19 18 -32 36 -28 42 4 6 0
8 -10 4 -10 -4 -14 -2 -11 6 3 8 -5 13 -18 14 -13 1 -50 30 -86 67 -58 58 -63
68 -51 82 13 16 12 16 -8 5 -20 -10 -24 -8 -40 16 -10 15 -28 37 -41 50 -13
13 -20 28 -16 35 4 6 3 8 -3 5 -11 -7 -123 113 -123 130 0 4 5 1 10 -7 5 -8
10 -10 10 -5 0 18 -17 38 -28 32 -13 -9 -46 29 -37 42 3 6 -1 11 -9 11 -9 0
-16 5 -16 10 0 16 -40 51 -50 45 -5 -3 -17 6 -26 20 -9 14 -20 25 -25 25 -5 0
-35 17 -66 37 -97 62 -226 100 -365 107 -20 1 -35 -1 -32 -5 2 -4 -6 -8 -18
-8 -13 0 -33 -1 -45 -1 -13 0 -23 -4 -23 -9 0 -5 -7 -12 -16 -15 -8 -3 -12 -2
-9 3 3 5 0 13 -6 17 -8 4 -9 3 -5 -4 4 -7 2 -12 -3 -12 -6 0 -11 5 -11 12 0 6
-3 8 -6 5 -4 -4 -2 -13 5 -20 9 -12 5 -17 -19 -27 -17 -7 -42 -9 -57 -5 -25 6
-26 5 -10 -7 17 -13 17 -15 3 -27 -8 -7 -20 -10 -25 -7 -5 4 -13 1 -17 -5 -5
-8 -3 -9 6 -4 9 5 10 2 6 -12 -5 -15 0 -23 19 -31 14 -6 25 -16 25 -22 0 -6 4
-9 9 -5 5 3 15 -1 23 -8 7 -7 30 -23 51 -36 20 -12 37 -29 37 -36 0 -8 16 -27
35 -42 41 -32 81 -91 77 -112 -2 -8 1 -10 9 -5 9 5 10 2 6 -10 -4 -10 -1 -19
9 -23 11 -4 14 -13 9 -32 -4 -21 -3 -23 6 -11 9 12 10 11 6 -8 -3 -12 -1 -20
4 -17 7 5 16 -15 25 -57 1 -5 3 -11 4 -15 1 -5 2 -16 1 -25 -1 -10 2 -18 8
-18 6 0 13 -17 17 -37 4 -21 13 -53 21 -71 8 -19 10 -31 5 -28 -6 3 -1 -11 9
-31 10 -20 16 -40 13 -45 -3 -5 2 -19 13 -30 10 -12 12 -18 6 -14 -8 4 -13 1
-13 -9 0 -9 5 -13 10 -10 6 3 10 1 10 -5 0 -6 7 -18 15 -26 8 -8 11 -22 8 -31
-4 -10 -2 -14 4 -10 6 4 16 -7 23 -26 6 -17 16 -39 21 -47 5 -8 12 -22 15 -30
11 -29 45 -90 62 -112 8 -9 11 -22 6 -29 -4 -7 -3 -10 4 -5 6 3 16 -3 23 -15
23 -43 83 -116 160 -194 73 -75 138 -135 144 -135 2 0 41 -25 87 -55 45 -31
93 -58 106 -61 19 -5 21 -9 10 -23 -11 -14 -11 -14 3 -3 19 14 52 6 42 -11 -4
-6 0 -8 10 -4 20 8 107 -29 107 -46 0 -9 3 -8 8 1 7 10 15 10 38 1 16 -6 38
-13 49 -14 318 -40 315 -40 470 -50 140 -9 250 -9 262 -2 5 3 43 7 84 8 41 1
79 5 84 9 8 6 54 15 190 36 11 2 44 10 74 18 30 8 58 13 63 10 4 -3 8 0 8 5 0
6 6 11 14 11 7 0 87 22 177 49 90 27 171 51 179 53 8 1 17 6 20 10 3 4 15 9
25 11 11 2 31 9 44 16 17 10 25 10 31 2 5 -9 11 -7 20 4 15 18 43 35 68 40 9
2 40 14 67 26 28 13 53 22 58 21 4 -1 7 2 7 7 0 11 39 26 59 22 8 -1 10 2 5
10 -5 9 -2 10 10 6 10 -4 15 -3 11 3 -3 6 -1 10 4 10 18 0 26 3 40 17 7 8 22
11 35 8 17 -5 18 -4 6 4 -13 10 -13 11 0 12 8 1 19 1 23 0 5 -1 6 3 2 9 -8 13
-60 13 -102 1 -18 -5 -79 -12 -135 -16 -57 -3 -127 -8 -155 -11 -29 -3 -57 -3
-63 1 -5 3 -44 7 -87 9 -77 3 -249 40 -267 57 -10 9 20 49 36 49 15 0 284 280
286 299 1 3 12 20 25 36 13 17 29 40 36 53 7 13 17 20 24 16 7 -4 9 -4 5 1 -8
8 47 114 68 131 8 6 11 14 7 17 -3 4 2 16 11 26 16 17 23 36 25 65 1 6 8 1 17
-10 14 -18 15 -18 4 3 -8 18 -6 33 9 70 10 27 22 56 25 66 3 11 11 15 17 11 8
-4 9 -3 5 4 -7 12 13 92 23 92 4 0 8 11 9 25 1 14 10 44 21 67 10 24 21 52 24
63 18 74 60 202 69 212 6 8 8 16 5 19 -3 3 -1 18 5 33 9 24 64 237 74 289 3
13 11 49 19 80 8 31 15 66 15 79 0 12 5 25 10 28 6 4 8 10 6 14 -3 4 4 50 14
102 34 167 54 292 52 322 -2 17 -32 25 -32 7 0 -5 -18 -27 -40 -50 -21 -22
-36 -40 -33 -40 3 0 -2 -9 -12 -20 -10 -12 -25 -18 -32 -15 -8 3 -11 0 -8 -6
8 -13 -24 -51 -37 -43 -4 3 -7 1 -6 -3 5 -16 -150 -165 -163 -157 -8 5 -9 3
-4 -5 8 -14 -139 -164 -150 -153 -4 4 -5 2 -3 -4 2 -6 -14 -26 -34 -46 -27
-25 -40 -32 -48 -24 -8 8 -9 7 -5 -5 4 -11 -9 -28 -41 -55 -25 -21 -59 -52
-75 -67 -17 -15 -34 -25 -39 -22 -5 3 -12 0 -16 -6 -5 -8 -3 -9 6 -4 9 6 11 4
6 -4 -5 -7 -14 -10 -22 -7 -9 3 -11 0 -7 -12 6 -16 5 -16 -14 1 -11 9 -23 17
-28 17 -5 0 0 -6 11 -14 19 -14 19 -15 -5 -40 -14 -14 -27 -24 -29 -21 -3 3
-11 -4 -19 -15 -8 -11 -19 -20 -25 -20 -6 0 -32 -19 -58 -42 -68 -62 -172
-133 -191 -132 -9 1 -16 -6 -15 -15 0 -9 -5 -15 -11 -13 -7 1 -13 -2 -13 -8 0
-5 -7 -10 -16 -10 -8 0 -12 -4 -9 -10 3 -5 1 -10 -5 -10 -6 0 -14 8 -17 18 -8
20 -29 43 -34 37 -3 -2 -15 12 -27 32 -13 19 -18 32 -10 29 7 -4 3 1 -9 10
-13 9 -23 25 -23 36 0 10 -7 21 -15 24 -8 4 -12 10 -9 16 3 5 12 7 20 4 11 -4
12 -2 1 14 -11 18 -12 19 -18 2 -6 -15 -7 -15 -14 3 -3 11 -11 29 -17 40 -10
18 -10 19 6 6 16 -13 17 -12 10 15 -8 36 -25 56 -18 23 3 -20 2 -18 -10 6 -8
17 -13 33 -13 37 1 4 -7 14 -18 23 l-20 15 20 -5 c16 -5 16 -3 -2 6 -25 13
-30 34 -10 42 9 4 9 6 0 6 -6 1 -15 -4 -18 -10 -9 -13 -45 18 -45 39 0 9 -3
13 -6 9 -3 -3 -18 5 -33 19 -19 17 -27 32 -25 53 1 23 -1 28 -14 23 -10 -4
-12 -7 -4 -10 13 -4 17 -32 4 -32 -5 0 -15 11 -22 25 -7 13 -16 24 -19 23 -20
-2 -31 3 -26 12 4 6 3 9 -2 8 -4 -1 -19 2 -32 6 -24 8 -24 9 -5 24 16 12 16
14 2 9 -10 -4 -18 -2 -18 3 0 6 11 10 24 10 14 0 27 4 30 9 3 4 -6 6 -20 3
-25 -5 -26 -4 -13 19 7 13 14 52 14 86 0 35 5 63 10 64 6 0 15 5 22 11 7 5 22
7 35 4 13 -3 17 -3 11 0 -22 10 -14 24 12 24 14 0 25 4 25 9 0 13 107 54 121
45 8 -4 9 -3 5 4 -4 7 -1 12 9 12 10 0 13 -5 9 -12 -5 -7 -3 -8 5 -4 7 5 10
15 7 23 -5 12 0 13 24 8 27 -6 30 -5 26 17 -2 13 -9 22 -16 20 -6 -1 -9 2 -5
8 3 5 15 10 27 10 13 0 18 5 15 14 -4 11 4 9 29 -6 19 -11 34 -15 34 -9 0 6
-6 11 -12 11 -22 0 -41 17 -33 29 5 9 11 7 20 -6 13 -17 14 -16 8 5 -4 15 -1
22 9 22 8 0 23 9 33 20 10 11 23 20 29 20 6 0 4 -5 -4 -10 -8 -5 -10 -10 -4
-10 6 0 18 8 25 17 10 11 10 14 2 9 -7 -4 -13 -4 -13 1 1 15 81 65 95 59 10
-3 12 0 8 11 -5 12 -2 15 10 10 8 -3 18 -1 21 6 3 9 7 8 14 -2 7 -9 12 -10 16
-2 4 6 2 11 -3 11 -6 0 -11 5 -11 11 0 5 4 8 9 5 5 -3 7 18 5 47 -3 37 -1 46
5 32 7 -14 10 -16 10 -4 1 8 -4 20 -11 27 -19 19 -22 163 -4 206 8 20 19 36
23 36 4 0 9 12 10 27 0 15 6 29 12 31 6 2 11 10 11 17 0 18 40 56 52 49 4 -3
8 2 8 10 0 19 13 27 52 33 20 3 28 1 23 -6 -3 -6 -1 -11 4 -11 15 0 14 27 -1
34 -7 3 -3 3 9 1 16 -5 25 1 36 25 9 17 11 28 6 24 -13 -8 -38 25 -39 49 0 10
-4 16 -8 13 -5 -3 -8 10 -7 28 2 22 -2 33 -11 33 -17 0 -18 -14 -1 -20 9 -4 9
-7 0 -16 -7 -6 -11 -8 -8 -5 2 4 -3 13 -11 21 -8 8 -12 19 -9 24 4 5 0 6 -8 3
-10 -3 -23 10 -40 40 -27 49 -28 55 -3 30 15 -14 16 -14 13 5 -4 23 -17 41
-17 22 0 -7 -4 -10 -9 -6 -5 3 -12 1 -16 -4 -3 -6 -12 -8 -20 -5 -8 4 -12 10
-9 15 3 5 3 9 0 9 -3 0 -7 -3 -7 -7z m-454 -512 c3 -5 1 -12 -5 -16 -5 -3 -10
1 -10 9 0 18 6 21 15 7z m-2010 -1631 c10 -11 16 -20 13 -20 -3 0 -13 9 -23
20 -10 11 -16 20 -13 20 3 0 13 -9 23 -20z"/>
<path d="M2960 4920 c0 -11 4 -20 9 -20 5 0 7 9 4 20 -3 11 -7 20 -9 20 -2 0
-4 -9 -4 -20z"/>
<path d="M3225 4790 c-3 -6 1 -7 9 -4 18 7 21 14 7 14 -6 0 -13 -4 -16 -10z"/>
<path d="M3240 4765 c-17 -10 -20 -14 -9 -15 9 0 22 7 29 15 15 18 12 18 -20
0z"/>
<path d="M5336 4705 c-4 -11 -22 -15 -71 -15 -61 0 -65 -2 -65 -22 -1 -13 -1
-89 0 -169 1 -132 -1 -147 -17 -153 -10 -4 -19 -2 -21 3 -5 14 -29 14 -37 1
-3 -6 1 -7 9 -4 9 3 16 2 16 -4 0 -5 -23 -10 -50 -11 -37 0 -49 3 -44 11 4 6
6 58 5 115 l-2 103 41 0 41 0 -3 60 -3 60 -258 3 c-141 1 -258 -1 -260 -5 -1
-4 0 -33 1 -63 l4 -55 34 0 35 0 -3 -112 -3 -113 -30 -1 c-16 -1 -34 -2 -40
-3 -6 0 -9 -28 -7 -66 l4 -65 231 1 c128 0 254 4 282 8 60 10 75 6 75 -23 0
-20 5 -22 43 -22 23 1 43 -3 44 -9 2 -7 -106 -10 -310 -10 l-312 0 2 -38 c1
-29 -2 -37 -13 -33 -8 3 -14 1 -14 -4 0 -6 7 -10 15 -10 21 0 19 -30 -2 -31
-15 0 -15 -2 2 -9 11 -5 138 -9 283 -9 l262 -1 0 -115 0 -115 43 0 c24 0 49
-6 56 -12 8 -8 11 -8 8 -2 -4 7 3 14 18 16 13 3 26 0 29 -6 2 -6 3 -1 3 11 -1
12 -5 19 -9 17 -4 -3 -8 -1 -8 5 0 5 6 12 13 14 10 4 10 6 0 6 -10 1 -13 34
-13 130 0 94 3 131 13 134 10 4 10 6 0 6 -7 1 -13 6 -13 12 0 5 4 8 8 5 4 -2
9 5 9 17 1 12 -1 17 -5 11 -9 -13 -46 -3 -49 13 -2 8 8 11 27 8 30 -4 41 9 18
18 -10 4 -10 8 1 15 11 8 11 10 0 15 -12 4 -11 7 1 16 10 7 11 11 3 11 -16 0
-18 76 -3 85 6 3 10 12 10 18 0 7 -4 6 -11 -3 -8 -12 -10 -12 -7 5 3 17 12 21
55 23 43 2 52 0 56 -15 4 -17 5 -17 6 0 1 18 21 25 21 6 0 -5 5 -7 12 -3 8 5
6 10 -5 19 -10 7 -17 30 -19 66 l-3 54 -42 -3 c-53 -4 -92 6 -72 19 10 6 11 9
2 9 -17 0 -18 141 -1 158 9 9 9 12 -2 12 -12 0 -13 2 -1 9 8 5 9 11 3 15 -5 3
-12 -1 -16 -9z m-418 -257 l-3 -113 -42 -3 -43 -3 0 115 0 116 45 0 46 0 -3
-112z"/>
<path d="M2800 4700 c0 -5 5 -10 10 -10 6 0 10 5 10 10 0 6 -4 10 -10 10 -5 0
-10 -4 -10 -10z"/>
<path d="M5864 4681 c-2 -2 -4 -34 -4 -71 0 -75 -25 -164 -45 -157 -8 4 -10
-2 -7 -18 2 -12 -1 -26 -7 -29 -7 -5 -9 0 -5 11 5 15 4 16 -5 3 -6 -8 -11 -23
-11 -34 0 -12 -5 -16 -16 -12 -8 3 -12 2 -9 -4 3 -6 2 -10 -4 -10 -5 0 -12 6
-15 13 -3 6 -3 2 0 -10 4 -18 -1 -26 -23 -35 -15 -7 -34 -18 -41 -25 -7 -7
-19 -13 -25 -13 -7 0 -6 4 3 10 10 7 11 10 2 10 -7 0 -15 -7 -18 -15 -4 -8
-14 -15 -23 -15 -9 0 -27 -6 -40 -13 -21 -10 -24 -19 -24 -65 0 -29 4 -57 9
-62 5 -4 34 -1 64 7 30 8 61 15 68 16 6 0 12 4 12 9 0 5 10 6 21 3 13 -5 19
-3 15 3 -3 5 1 13 10 16 21 8 26 8 20 -2 -3 -5 1 -9 9 -9 8 0 15 10 16 21 0
12 3 15 6 9 2 -7 9 -13 14 -13 4 0 6 6 3 14 -3 9 4 19 17 27 12 6 33 25 47 40
51 61 47 62 172 -48 21 -18 45 -33 55 -33 15 0 16 -2 4 -17 -13 -15 -12 -15 6
-6 20 11 81 -6 115 -32 8 -6 31 -11 50 -10 l35 2 0 64 0 63 -38 9 c-28 7 -37
13 -32 25 4 12 3 13 -9 3 -27 -23 -147 62 -130 91 4 7 4 10 -1 6 -11 -11 -47
12 -42 26 3 7 -4 18 -15 25 -11 7 -18 15 -15 18 3 2 -1 20 -9 38 -17 42 -18
58 -1 49 10 -6 10 -4 0 7 -7 7 -13 36 -13 65 l0 52 -71 4 c-39 2 -73 1 -75 -1z"/>
<path d="M4572 4660 c0 -14 2 -19 5 -12 2 6 2 18 0 25 -3 6 -5 1 -5 -13z"/>
<path d="M2805 4660 c3 -5 8 -10 11 -10 2 0 4 5 4 10 0 6 -5 10 -11 10 -5 0
-7 -4 -4 -10z"/>
<path d="M2736 4601 c-3 -4 6 -6 19 -3 14 2 25 6 25 8 0 8 -39 4 -44 -5z"/>
<path d="M3086 4584 c-11 -8 -16 -14 -10 -14 13 0 39 18 34 24 -3 2 -14 -2
-24 -10z"/>
<path d="M2491 4504 c0 -11 3 -14 6 -6 3 7 2 16 -1 19 -3 4 -6 -2 -5 -13z"/>
<path d="M5448 4513 c6 -2 18 -2 25 0 6 3 1 5 -13 5 -14 0 -19 -2 -12 -5z"/>
<path d="M2083 4463 c0 -8 6 -9 19 -2 10 5 18 11 18 12 0 2 -8 3 -18 3 -10 0
-19 -6 -19 -13z"/>
<path d="M5697 4386 c-4 -10 -1 -13 8 -9 8 3 12 9 9 14 -7 12 -11 11 -17 -5z"/>
<path d="M6117 4369 c7 -7 15 -10 18 -7 3 3 -2 9 -12 12 -14 6 -15 5 -6 -5z"/>
<path d="M5087 4357 c-3 -8 1 -14 8 -14 7 0 11 6 8 14 -3 7 -6 13 -8 13 -2 0
-5 -6 -8 -13z"/>
<path d="M6146 4353 c-6 -14 -5 -15 5 -6 7 7 10 15 7 18 -3 3 -9 -2 -12 -12z"/>
<path d="M5691 4347 c-8 -10 -7 -14 4 -14 8 0 11 5 8 10 -4 6 1 8 11 4 10 -4
15 -3 11 3 -8 14 -20 12 -34 -3z"/>
<path d="M2024 4321 c4 -6 0 -14 -8 -17 -17 -7 -22 -24 -6 -24 16 0 32 38 18
46 -7 4 -8 3 -4 -5z"/>
<path d="M1961 4231 c-8 -5 -21 -7 -29 -3 -9 3 -13 1 -9 -5 4 -6 16 -13 28
-16 11 -3 18 -3 15 0 -3 4 -1 12 5 20 13 15 10 16 -10 4z"/>
<path d="M6045 4200 c3 -5 11 -10 16 -10 6 0 7 5 4 10 -3 6 -11 10 -16 10 -6
0 -7 -4 -4 -10z"/>
<path d="M4620 4180 c0 -5 5 -10 11 -10 5 0 7 5 4 10 -3 6 -8 10 -11 10 -2 0
-4 -4 -4 -10z"/>
<path d="M5575 4111 c-6 -11 13 -26 22 -17 4 3 0 6 -8 6 -11 0 -11 2 1 10 9 6
10 10 3 10 -6 0 -14 -4 -18 -9z"/>
<path d="M1659 4063 c-13 -16 -12 -17 4 -4 9 7 17 15 17 17 0 8 -8 3 -21 -13z"/>
<path d="M1474 3989 c-3 -6 -2 -15 4 -21 6 -6 12 -6 17 3 6 8 4 10 -5 4 -10
-6 -12 -4 -7 8 7 19 2 23 -9 6z"/>
<path d="M6323 3977 c3 -16 -751 -23 -767 -7 -5 5 -17 10 -25 10 -13 0 -13 -2
-3 -9 7 -4 12 -12 11 -17 -1 -5 -1 -33 0 -61 l1 -53 395 0 395 0 1 48 c1 26 0
53 -1 61 -1 8 4 17 10 21 8 5 7 9 -4 13 -9 4 -15 1 -13 -6z"/>
<path d="M3976 3963 c-6 -14 -5 -15 5 -6 7 7 10 15 7 18 -3 3 -9 -2 -12 -12z"/>
<path d="M6353 3885 c0 -27 2 -38 4 -22 2 15 2 37 0 50 -2 12 -4 0 -4 -28z"/>
<path d="M2665 3850 c-3 -6 1 -7 9 -4 18 7 21 14 7 14 -6 0 -13 -4 -16 -10z"/>
<path d="M2530 3816 c0 -2 7 -6 15 -10 8 -3 15 -1 15 4 0 6 -7 10 -15 10 -8 0
-15 -2 -15 -4z"/>
<path d="M2505 3790 c-3 -5 -1 -10 4 -10 6 0 11 5 11 10 0 6 -2 10 -4 10 -3 0
-8 -4 -11 -10z"/>
<path d="M2380 3681 c0 -5 5 -13 10 -16 6 -3 10 -2 10 4 0 5 -4 13 -10 16 -5
3 -10 2 -10 -4z"/>
<path d="M6140 3569 c0 -5 5 -7 10 -4 6 3 10 8 10 11 0 2 -4 4 -10 4 -5 0 -10
-5 -10 -11z"/>
<path d="M7960 3564 c0 -5 7 -19 15 -30 22 -29 22 -654 0 -654 -8 0 -15 -5
-15 -11 0 -5 5 -7 12 -3 7 4 8 3 4 -5 -4 -6 -11 -9 -16 -6 -4 3 -11 -1 -14 -7
-4 -7 -4 -3 -2 10 2 12 0 20 -5 16 -5 -3 -9 -12 -9 -19 0 -23 -34 -26 -210
-23 l-165 3 -3 99 c-3 114 1 134 23 116 10 -9 15 -9 15 -1 0 7 39 11 125 11
l125 0 0 60 0 60 -125 0 c-77 0 -125 4 -125 10 0 6 -5 10 -11 10 -5 0 -7 -5
-3 -11 4 -7 1 -10 -7 -7 -11 4 -14 29 -14 109 l0 104 145 0 c108 0 144 -3 143
-12 -2 -7 4 -10 13 -6 11 4 12 8 4 13 -6 4 -11 13 -10 21 1 8 2 35 1 62 l-1
47 -220 0 -220 0 -2 -405 c-2 -265 0 -405 7 -405 6 -1 122 0 259 0 195 0 256
4 283 15 l36 15 -5 -47 -5 -48 79 0 c58 0 77 3 73 13 -2 6 0 12 5 12 6 0 10
-8 11 -17 0 -13 2 -14 6 -4 3 8 -2 20 -11 27 -9 6 -16 16 -15 20 1 5 1 197 0
426 l-1 416 -70 4 c-42 2 -70 -1 -70 -7 -1 -5 -7 1 -15 15 -8 14 -14 20 -15
14z"/>
<path d="M6125 3198 c0 -281 -3 -349 -13 -353 -28 -11 -34 -4 -16 18 12 14 8
12 -12 -6 l-31 -27 -169 2 -169 3 -3 104 c-2 77 1 107 10 113 7 4 72 8 143 7
l130 -1 3 231 2 231 -215 0 -215 0 0 -64 c0 -48 4 -65 15 -70 8 -3 15 -1 15 4
0 12 229 13 248 2 9 -6 12 -35 10 -108 l-3 -99 -150 -5 c-82 -3 -145 -7 -140
-8 6 -1 3 -7 -5 -12 -10 -6 -11 -10 -2 -10 17 0 18 -420 0 -438 -17 -17 -3
-25 21 -12 14 7 101 11 254 11 272 1 296 2 291 11 -2 4 0 9 6 13 5 3 10 3 11
-2 0 -4 2 -18 5 -31 2 -13 0 -31 -5 -40 -9 -17 15 -19 149 -12 3 0 5 200 5
445 0 245 -2 445 -5 446 -3 0 -35 1 -73 2 l-67 2 0 -332 c0 -213 -4 -333 -10
-333 -6 0 -11 122 -13 333 l-3 332 1 -347z"/>
<path d="M6790 3535 c0 0 -2 -29 -4 -65 -4 -74 -24 -160 -37 -160 -5 0 -9 -8
-9 -18 0 -26 -60 -94 -77 -88 -8 3 -12 2 -10 -2 3 -4 -1 -12 -8 -19 -11 -10
-15 -10 -18 0 -3 7 -6 4 -6 -6 -1 -15 -4 -16 -23 -6 -20 11 -21 10 -10 -3 10
-13 10 -17 -2 -21 -9 -4 -18 -2 -21 3 -4 6 -12 10 -18 10 -7 0 -6 -4 3 -10 12
-7 7 -12 -23 -25 -21 -9 -42 -13 -47 -10 -10 6 -18 -112 -9 -127 4 -6 15 -8
25 -4 27 8 76 18 96 19 9 1 14 6 11 11 -4 5 1 7 11 3 11 -5 30 3 54 21 20 15
32 20 27 12 -4 -8 5 -4 21 10 16 14 49 41 72 59 39 30 47 32 70 22 22 -11 24
-10 13 3 -7 9 -8 17 -2 20 5 3 18 -5 28 -18 11 -13 36 -35 56 -49 20 -13 33
-28 29 -32 -4 -3 -2 -5 3 -4 17 5 55 -12 55 -23 0 -6 3 -8 7 -5 3 4 17 0 29
-8 13 -8 40 -18 60 -21 64 -10 117 -36 57 -27 -26 3 -27 3 -5 -6 42 -19 52 -5
52 71 0 43 4 67 10 63 6 -3 10 -1 10 4 0 6 -16 11 -35 11 -28 0 -33 3 -29 18
5 14 4 14 -4 3 -9 -13 -17 -12 -54 4 -24 10 -48 24 -54 32 -6 7 -14 10 -17 6
-4 -3 -7 -1 -7 5 0 7 -7 12 -16 12 -8 0 -12 5 -9 10 3 6 -2 10 -12 10 -10 0
-14 4 -8 8 15 11 16 29 1 42 -10 8 -16 8 -21 0 -4 -6 -2 -9 3 -8 11 3 16 -11
5 -14 -9 -4 -54 79 -60 111 -3 14 -6 59 -7 99 -1 39 -3 72 -6 73 -3 0 -133 4
-140 4z m70 -365 c0 -5 -4 -10 -10 -10 -5 0 -10 5 -10 10 0 6 5 10 10 10 6 0
10 -4 10 -10z"/>
<path d="M8145 3530 c3 -5 8 -10 11 -10 2 0 4 5 4 10 0 6 -5 10 -11 10 -5 0
-7 -4 -4 -10z"/>
<path d="M4661 3450 c2 -63 4 -68 20 -60 21 12 519 13 535 2 14 -9 13 -171 -1
-173 -5 0 -15 -5 -21 -10 -6 -4 -133 -9 -282 -9 -269 -1 -272 -1 -261 -21 6
-11 9 -39 7 -62 l-3 -42 245 0 c135 0 261 2 280 5 l35 5 0 -40 c-1 -22 -4 -68
-8 -102 l-7 -63 76 0 c64 0 75 2 70 15 -3 8 -2 15 2 15 4 0 8 42 10 93 2 50 7
95 10 99 4 4 6 99 4 212 l-3 206 -355 0 -355 0 2 -70z"/>
<path d="M6763 3480 c0 -25 2 -35 4 -22 2 12 2 32 0 45 -2 12 -4 2 -4 -23z"/>
<path d="M7873 3475 c0 -27 2 -38 4 -22 2 15 2 37 0 50 -2 12 -4 0 -4 -28z"/>
<path d="M1637 3476 c-4 -10 -1 -13 8 -9 8 3 12 9 9 14 -7 12 -11 11 -17 -5z"/>
<path d="M1606 3393 c-6 -14 -5 -15 5 -6 7 7 10 15 7 18 -3 3 -9 -2 -12 -12z"/>
<path d="M5551 3384 c0 -11 3 -14 6 -6 3 7 2 16 -1 19 -3 4 -6 -2 -5 -13z"/>
<path d="M3286 3332 c-2 -4 4 -8 14 -8 10 0 16 4 14 8 -3 4 -9 8 -14 8 -5 0
-11 -4 -14 -8z"/>
<path d="M6675 3251 c-3 -5 -2 -12 3 -15 5 -3 9 1 9 9 0 17 -3 19 -12 6z"/>
<path d="M1531 3193 c-1 -12 4 -25 9 -28 12 -7 12 2 0 30 -8 19 -9 19 -9 -2z"/>
<path d="M1537 3129 c4 -13 8 -18 11 -10 2 7 -1 18 -6 23 -8 8 -9 4 -5 -13z"/>
<path d="M1561 3124 c0 -11 3 -14 6 -6 3 7 2 16 -1 19 -3 4 -6 -2 -5 -13z"/>
<path d="M550 3110 c0 -5 5 -10 11 -10 5 0 7 5 4 10 -3 6 -8 10 -11 10 -2 0
-4 -4 -4 -10z"/>
<path d="M870 3101 c0 -6 4 -13 10 -16 6 -3 7 1 4 9 -7 18 -14 21 -14 7z"/>
<path d="M1575 3090 c3 -5 11 -10 16 -10 6 0 7 5 4 10 -3 6 -11 10 -16 10 -6
0 -7 -4 -4 -10z"/>
<path d="M6750 3079 c-22 -18 -22 -19 -3 -10 12 6 25 16 28 21 9 15 3 12 -25
-11z"/>
<path d="M912 3083 c-16 -6 15 -32 38 -32 9 0 6 5 -8 12 -12 7 -19 16 -16 20
8 8 5 8 -14 0z"/>
<path d="M6916 3078 c3 -4 12 -8 20 -8 8 0 14 4 14 8 0 4 -9 8 -19 8 -11 0
-17 -4 -15 -8z"/>
<path d="M4648 3053 c7 -3 16 -2 19 1 4 3 -2 6 -13 5 -11 0 -14 -3 -6 -6z"/>
<path d="M6910 3050 c-9 -6 -10 -10 -3 -10 6 0 15 5 18 10 8 12 4 12 -15 0z"/>
<path d="M2886 3031 c-4 -5 -2 -12 3 -15 5 -4 12 -2 15 3 4 5 2 12 -3 15 -5 4
-12 2 -15 -3z"/>
<path d="M2764 3014 c3 -9 6 -18 6 -20 0 -2 4 -4 8 -4 4 0 8 9 9 20 1 12 -4
20 -14 20 -10 0 -13 -6 -9 -16z"/>
<path d="M1042 3004 c10 -10 20 -16 22 -13 3 3 -5 11 -17 18 -21 13 -21 12 -5
-5z"/>
<path d="M1120 2945 c0 -8 4 -15 10 -15 5 0 7 7 4 15 -4 8 -8 15 -10 15 -2 0
-4 -7 -4 -15z"/>
<path d="M1150 2951 c0 -10 19 -25 25 -20 1 2 -3 10 -11 17 -8 7 -14 8 -14 3z"/>
<path d="M364 2931 c3 -5 16 -11 28 -14 22 -6 22 -5 4 8 -22 17 -40 20 -32 6z"/>
<path d="M1237 2861 c-8 -10 -8 -13 0 -8 6 4 13 3 15 -3 2 -6 8 -2 15 8 9 15
8 19 -3 19 -8 0 -20 -7 -27 -16z"/>
<path d="M480 2859 c0 -5 5 -7 10 -4 6 3 10 8 10 11 0 2 -4 4 -10 4 -5 0 -10
-5 -10 -11z"/>
<path d="M1225 2830 c3 -5 8 -10 11 -10 2 0 4 5 4 10 0 6 -5 10 -11 10 -5 0
-7 -4 -4 -10z"/>
<path d="M480 2826 c0 -2 8 -10 18 -17 15 -13 16 -12 3 4 -13 16 -21 21 -21
13z"/>
<path d="M7258 2823 c7 -3 16 -2 19 1 4 3 -2 6 -13 5 -11 0 -14 -3 -6 -6z"/>
<path d="M4619 2814 c0 -5 0 -31 1 -57 1 -36 -3 -52 -16 -61 -13 -10 -14 -15
-4 -21 9 -5 11 -4 6 3 -5 9 92 12 388 12 293 0 396 -3 396 -12 0 -6 9 -3 20 7
14 13 17 21 9 26 -7 4 -10 25 -8 53 l4 46 -382 0 c-210 0 -388 3 -397 6 -9 3
-16 2 -17 -2z"/>
<path d="M6462 2813 c-4 -2 -5 -25 -4 -51 3 -37 -1 -53 -15 -67 -17 -18 -17
-19 1 -12 12 5 23 3 28 -5 6 -10 8 -10 8 0 0 10 81 12 391 12 215 -1 394 1
397 4 3 3 -1 12 -8 21 -7 8 -10 32 -8 55 l3 40 -392 2 c-216 2 -396 2 -401 1z"/>
<path d="M1300 2780 c5 -10 7 -20 4 -23 -7 -7 27 -56 39 -57 5 0 -1 12 -13 27
-16 20 -18 28 -8 35 10 6 10 8 -1 8 -7 0 -11 6 -8 13 3 8 -1 14 -8 14 -10 0
-11 -5 -5 -17z"/>
<path d="M570 2746 c0 -2 8 -10 18 -17 15 -13 16 -12 3 4 -13 16 -21 21 -21
13z"/>
<path d="M1422 2711 c-11 -7 -11 -9 0 -14 9 -3 15 1 15 9 0 8 -1 14 -1 14 -1
0 -7 -4 -14 -9z"/>
<path d="M4566 2703 c-6 -14 -5 -15 5 -6 7 7 10 15 7 18 -3 3 -9 -2 -12 -12z"/>
<path d="M7240 2670 c-8 -5 -10 -10 -5 -10 6 0 17 5 25 10 8 5 11 10 5 10 -5
0 -17 -5 -25 -10z"/>
<path d="M7256 2652 c-3 -5 1 -9 9 -9 8 0 12 4 9 9 -3 4 -7 8 -9 8 -2 0 -6 -4
-9 -8z"/>
<path d="M1575 2451 c-3 -5 -1 -12 4 -15 5 -3 11 1 15 9 6 16 -9 21 -19 6z"/>
<path d="M6118 2379 c9 -10 17 -19 17 -19 0 0 1 8 1 18 0 10 -8 19 -17 19 -16
2 -17 0 -1 -18z"/>
<path d="M6149 2385 c0 -5 0 -151 1 -324 1 -281 0 -313 -14 -308 -10 4 -16 1
-16 -8 0 -9 6 -12 18 -8 14 5 15 4 4 -8 -15 -16 -49 1 -44 23 3 10 1 11 -9 0
-11 -10 -9 -15 10 -29 l24 -16 -24 -13 c-17 -10 -75 -13 -207 -14 l-182 0 1
110 c1 107 2 110 22 109 12 -1 77 -1 145 -1 l122 2 0 238 0 237 -210 -3 c-115
-2 -210 0 -210 5 0 5 -9 9 -21 9 -18 0 -19 -2 -4 -12 20 -15 21 -24 3 -35 -7
-5 -8 -9 -2 -9 6 0 11 -14 12 -30 0 -20 -3 -28 -10 -24 -7 5 -8 2 -3 -6 4 -7
3 -15 -3 -19 -5 -3 61 -5 149 -3 l159 2 0 -85 c0 -56 -4 -85 -11 -85 -8 0 -7
-5 2 -16 23 -28 -9 -35 -159 -32 -79 2 -138 2 -132 0 8 -3 7 -8 -1 -18 -8 -10
-8 -14 0 -14 17 0 15 -397 -1 -403 -10 -3 -10 -7 0 -19 10 -13 10 -17 0 -21
-7 -3 -2 -6 12 -6 19 -1 22 -3 10 -11 -8 -5 -12 -12 -8 -15 3 -3 12 1 21 9 20
21 477 28 477 8 0 -7 5 -10 10 -7 6 4 8 11 5 16 -4 5 -1 9 5 9 7 0 10 -7 7
-15 -8 -19 5 -26 23 -14 12 8 12 12 3 16 -7 2 -13 9 -13 14 0 6 5 7 10 4 6 -3
10 -1 10 4 0 6 4 11 8 11 18 0 5 -54 -15 -61 -11 -4 -23 -14 -26 -23 -8 -21 3
-20 19 2 10 14 15 15 25 5 7 -7 35 -13 61 -13 30 0 47 -4 45 -11 -1 -6 4 -14
11 -16 8 -3 10 1 5 13 -5 13 -3 16 10 11 12 -4 17 -1 17 11 1 13 4 11 16 -8
l15 -25 -7 25 c-4 14 -11 27 -15 28 -11 4 -12 842 -1 842 4 0 9 10 9 22 2 18
0 20 -7 8 -6 -9 -13 -11 -17 -5 -5 6 -36 10 -70 10 -35 0 -63 -4 -64 -10z"/>
<path d="M6590 2375 c0 -14 -10 -26 -25 -33 -14 -6 -25 -18 -25 -26 0 -8 -5
-18 -12 -22 -7 -5 -8 -3 -3 6 6 9 4 11 -4 6 -7 -5 -10 -13 -8 -20 2 -6 1 -20
-4 -31 -6 -17 -8 -15 -9 10 0 25 -2 27 -11 13 -7 -12 -7 -24 0 -37 6 -10 8
-20 6 -22 -6 -7 -24 -206 -25 -274 0 -33 5 -94 11 -135 6 -41 12 -97 13 -124
0 -30 6 -51 14 -54 6 -2 10 -8 7 -13 -3 -4 6 -11 20 -15 15 -4 28 -15 31 -30
3 -13 13 -29 22 -36 15 -12 15 -11 4 4 -12 15 -11 17 7 15 11 0 22 -10 25 -22
4 -12 9 -16 13 -9 7 9 43 13 155 18 9 0 14 4 12 8 -3 4 2 8 10 8 9 0 16 4 16
9 0 5 7 12 16 15 8 3 13 2 10 -3 -3 -5 1 -15 10 -22 13 -11 14 -9 9 14 -7 27
-1 31 45 28 10 0 11 1 2 5 -6 3 -9 11 -5 17 4 7 -1 6 -10 -2 -10 -8 -21 -11
-25 -7 -4 4 0 13 8 19 14 11 38 81 46 137 9 60 4 360 -7 410 -6 30 -12 70 -12
88 0 17 -4 32 -9 32 -5 0 -6 6 -2 13 6 9 4 9 -8 -1 -13 -11 -17 -9 -21 11 -4
12 -4 32 -1 43 4 14 1 21 -10 21 -11 0 -13 -4 -6 -12 7 -9 6 -16 -5 -25 -8 -7
-16 -10 -16 -6 -1 3 -3 11 -4 16 -1 6 -3 15 -4 21 0 5 -5 7 -11 4 -5 -3 -10
-1 -10 6 0 7 -3 9 -6 6 -4 -4 -1 -13 6 -22 11 -13 10 -14 -6 -9 -10 4 -28 14
-38 23 -11 9 -17 11 -13 5 4 -7 -13 -11 -53 -11 -33 -1 -58 2 -55 6 2 4 -9 7
-26 7 -23 0 -29 -4 -29 -21z m35 5 c-3 -5 -12 -10 -18 -10 -7 0 -6 4 3 10 19
12 23 12 15 0z m75 -131 c0 11 4 11 18 -2 14 -13 21 -14 30 -5 9 9 12 8 12 -5
0 -9 5 -17 12 -17 9 0 9 -3 0 -12 -9 -9 -8 -15 2 -27 8 -9 15 -20 17 -26 1 -5
3 -15 6 -21 5 -15 -3 -342 -10 -376 -7 -36 -26 -68 -28 -48 -1 8 -1 21 0 27 1
7 -4 10 -11 8 -7 -3 -13 -16 -13 -29 0 -13 3 -22 7 -20 4 2 9 0 13 -6 3 -5 0
-10 -7 -11 -76 -4 -77 -4 -65 10 10 12 9 14 -4 9 -9 -3 -22 -2 -30 3 -11 7
-11 9 4 9 9 0 17 5 17 10 0 6 -9 10 -19 10 -27 0 -36 72 -34 262 1 147 7 193
23 183 5 -3 12 0 16 6 4 7 3 9 -4 5 -6 -3 -13 -2 -17 4 -3 5 1 10 10 10 9 0
21 14 27 31 8 23 13 27 19 17 7 -11 9 -11 9 1z m-40 -29 c0 -5 -5 -10 -11 -10
-5 0 -7 5 -4 10 3 6 8 10 11 10 2 0 4 -4 4 -10z m-145 -559 c3 -5 1 -12 -5
-16 -5 -3 -10 1 -10 9 0 18 6 21 15 7z"/>
<path d="M6676 2203 c-6 -14 -5 -15 5 -6 7 7 10 15 7 18 -3 3 -9 -2 -12 -12z"/>
<path d="M6730 2209 c0 -5 5 -7 10 -4 6 3 10 8 10 11 0 2 -4 4 -10 4 -5 0 -10
-5 -10 -11z"/>
<path d="M6670 2170 c0 -5 5 -10 11 -10 5 0 7 5 4 10 -3 6 -8 10 -11 10 -2 0
-4 -4 -4 -10z"/>
<path d="M6741 1774 c0 -11 3 -14 6 -6 3 7 2 16 -1 19 -3 4 -6 -2 -5 -13z"/>
<path d="M7050 2386 c-6 -6 -10 -185 -10 -456 l0 -446 40 4 c24 3 54 -2 74
-12 19 -9 38 -16 43 -15 4 0 -5 7 -22 14 -24 12 -26 14 -10 16 11 1 22 1 25 1
3 0 5 93 5 206 l0 207 55 1 c30 1 60 2 65 3 6 1 10 31 10 70 l0 68 -65 -1 -65
-1 -1 175 -1 175 -67 0 c-37 0 -71 -4 -76 -9z"/>
<path d="M4643 2357 c-1 -9 2 -15 8 -12 5 4 9 2 9 -4 0 -5 -6 -12 -12 -14 -10
-4 -10 -6 0 -6 10 -1 10 -6 1 -22 -6 -12 -7 -19 -2 -16 5 4 10 0 10 -8 0 -8
-4 -12 -9 -9 -4 3 -8 -1 -8 -8 0 -10 53 -12 271 -10 150 2 282 1 295 -2 20 -5
24 -13 24 -46 0 -29 -4 -40 -15 -40 -8 0 -15 -7 -15 -15 0 -8 7 -15 15 -15 8
0 15 -4 15 -9 0 -6 -9 -8 -19 -6 -11 2 -32 0 -48 -4 -20 -6 -31 -3 -41 8 -11
14 -11 14 -6 -2 6 -18 -5 -18 -227 -16 -154 1 -236 6 -241 13 -4 6 -6 1 -5
-11 0 -12 5 -19 9 -17 4 3 8 -20 8 -50 0 -44 4 -57 19 -66 14 -7 22 -7 26 0 4
7 87 10 229 10 122 -1 227 0 232 2 5 1 20 -5 33 -14 23 -16 24 -20 17 -95 -3
-43 -9 -90 -12 -104 -7 -30 19 -47 42 -28 11 9 18 8 31 -2 11 -10 14 -10 9 -1
-5 8 1 12 18 12 16 0 26 -6 26 -15 0 -8 6 -15 14 -15 10 0 14 14 14 53 0 28 3
176 7 327 l8 275 -365 0 c-341 0 -364 -1 -365 -18z m587 -377 c0 -5 -7 -10
-15 -10 -8 0 -15 5 -15 10 0 6 7 10 15 10 8 0 15 -4 15 -10z"/>
<path d="M6090 2369 c0 -5 5 -7 10 -4 6 3 10 8 10 11 0 2 -4 4 -10 4 -5 0 -10
-5 -10 -11z"/>
<path d="M6563 2365 c0 -8 4 -12 9 -9 5 3 6 10 3 15 -9 13 -12 11 -12 -6z"/>
<path d="M751 2354 c0 -11 3 -14 6 -6 3 7 2 16 -1 19 -3 4 -6 -2 -5 -13z"/>
<path d="M6300 2335 c0 -8 4 -15 10 -15 5 0 7 7 4 15 -4 8 -8 15 -10 15 -2 0
-4 -7 -4 -15z"/>
<path d="M6928 2314 c-4 -6 1 -19 11 -28 15 -13 18 -14 18 -1 0 8 -4 12 -8 9
-4 -2 -9 4 -11 13 -2 12 -6 14 -10 7z"/>
<path d="M6920 2270 c0 -5 5 -10 11 -10 5 0 7 5 4 10 -3 6 -8 10 -11 10 -2 0
-4 -4 -4 -10z"/>
<path d="M4645 2150 c-3 -5 3 -10 15 -10 12 0 18 5 15 10 -3 6 -10 10 -15 10
-5 0 -12 -4 -15 -10z"/>
<path d="M3470 2106 c0 -2 8 -10 18 -17 15 -13 16 -12 3 4 -13 16 -21 21 -21
13z"/>
<path d="M5550 2071 c0 -6 4 -13 10 -16 6 -3 7 1 4 9 -7 18 -14 21 -14 7z"/>
<path d="M5585 2071 c-3 -5 -2 -12 3 -15 5 -3 9 1 9 9 0 17 -3 19 -12 6z"/>
<path d="M7287 2069 c7 -7 15 -10 18 -7 3 3 -2 9 -12 12 -14 6 -15 5 -6 -5z"/>
<path d="M6452 2020 c0 -14 2 -19 5 -12 2 6 2 18 0 25 -3 6 -5 1 -5 -13z"/>
<path d="M5128 1943 c7 -3 16 -2 19 1 4 3 -2 6 -13 5 -11 0 -14 -3 -6 -6z"/>
<path d="M5048 1933 c6 -2 18 -2 25 0 6 3 1 5 -13 5 -14 0 -19 -2 -12 -5z"/>
<path d="M5378 1923 c7 -3 16 -2 19 1 4 3 -2 6 -13 5 -11 0 -14 -3 -6 -6z"/>
<path d="M4832 1889 c-1 -15 4 -31 11 -37 10 -8 13 -6 13 9 0 10 -4 19 -8 19
-4 0 -5 7 -2 15 16 40 24 5 24 -100 0 -74 -4 -115 -11 -115 -5 0 -7 -4 -4 -10
3 -5 -1 -10 -9 -10 -9 0 -16 6 -16 13 0 9 -2 9 -8 0 -5 -9 -39 -12 -114 -10
-91 2 -105 0 -99 -13 6 -13 8 -66 3 -107 -1 -7 -8 -13 -16 -13 -8 0 -17 6 -19
13 -4 8 -6 7 -6 -3 -1 -13 52 -15 419 -15 391 0 421 1 426 17 3 10 3 22 -1 28
-3 6 1 7 9 4 10 -4 16 -1 16 10 0 10 -5 13 -16 9 -14 -5 -15 -3 -4 17 10 18 9
21 -1 15 -9 -6 -11 -3 -6 9 5 13 1 19 -14 23 -16 5 -18 8 -7 15 9 7 6 7 -7 1
-11 -4 -100 -9 -197 -10 l-178 -2 0 124 c0 71 4 125 9 125 5 0 12 -10 14 -22
4 -21 4 -21 6 2 l1 26 -103 -1 -103 0 -2 -26z"/>
<path d="M5745 1870 c3 -5 8 -10 11 -10 2 0 4 5 4 10 0 6 -5 10 -11 10 -5 0
-7 -4 -4 -10z"/>
<path d="M5310 1722 c0 -12 19 -26 26 -19 2 2 -2 10 -11 17 -9 8 -15 8 -15 2z"/>
<path d="M3828 1713 c6 -2 18 -2 25 0 6 3 1 5 -13 5 -14 0 -19 -2 -12 -5z"/>
<path d="M5275 1710 c4 -6 11 -8 16 -5 14 9 11 15 -7 15 -8 0 -12 -5 -9 -10z"/>
<path d="M6080 1710 c0 -5 5 -10 11 -10 5 0 7 5 4 10 -3 6 -8 10 -11 10 -2 0
-4 -4 -4 -10z"/>
<path d="M4563 1661 c0 -11 5 -17 9 -15 11 7 10 34 -1 34 -6 0 -9 -9 -8 -19z"/>
<path d="M5410 1670 c0 -5 5 -10 10 -10 6 0 10 5 10 10 0 6 -4 10 -10 10 -5 0
-10 -4 -10 -10z"/>
<path d="M6927 1666 c-3 -8 0 -16 6 -19 7 -3 13 3 13 14 0 22 -12 25 -19 5z"/>
<path d="M3911 1654 c0 -11 3 -14 6 -6 3 7 2 16 -1 19 -3 4 -6 -2 -5 -13z"/>
<path d="M6938 1623 c7 -3 16 -2 19 1 4 3 -2 6 -13 5 -11 0 -14 -3 -6 -6z"/>
<path d="M4573 1605 c-10 -11 -9 -13 6 -12 11 1 17 7 14 14 -6 16 -5 16 -20
-2z"/>
<path d="M3708 1563 c6 -2 18 -2 25 0 6 3 1 5 -13 5 -14 0 -19 -2 -12 -5z"/>
<path d="M6835 1556 c-5 -6 -11 -18 -13 -26 -3 -12 0 -12 13 2 10 9 16 21 14
26 -3 6 -8 5 -14 -2z"/>
<path d="M5427 1540 c-3 -11 -1 -20 4 -20 5 0 9 9 9 20 0 11 -2 20 -4 20 -2 0
-6 -9 -9 -20z"/>
<path d="M6788 1523 c7 -3 16 -2 19 1 4 3 -2 6 -13 5 -11 0 -14 -3 -6 -6z"/>
<path d="M6141 1457 c-13 -21 -12 -21 5 -5 10 10 16 20 13 22 -3 3 -11 -5 -18
-17z"/>
<path d="M7060 1469 c0 -5 5 -7 10 -4 6 3 10 8 10 11 0 2 -4 4 -10 4 -5 0 -10
-5 -10 -11z"/>
<path d="M7090 1460 c-7 -14 -7 -20 0 -20 5 0 10 6 10 14 0 8 6 17 13 19 9 4
9 6 0 6 -7 1 -17 -8 -23 -19z"/>
<path d="M1708 1303 c7 -3 16 -2 19 1 4 3 -2 6 -13 5 -11 0 -14 -3 -6 -6z"/>
<path d="M2058 1243 c7 -3 16 -2 19 1 4 3 -2 6 -13 5 -11 0 -14 -3 -6 -6z"/>
<path d="M707 939 c4 -13 8 -18 11 -10 2 7 -1 18 -6 23 -8 8 -9 4 -5 -13z"/>
<path d="M976 946 c3 -7 -8 -28 -23 -47 -15 -18 -22 -29 -15 -25 10 6 9 0 -2
-23 -9 -17 -21 -31 -27 -31 -6 0 -7 -5 -4 -11 8 -12 -20 -75 -46 -103 -11 -11
-18 -25 -18 -30 3 -30 -2 -47 -13 -40 -6 4 -8 3 -4 -4 9 -14 -25 -83 -37 -75
-6 3 -7 1 -3 -5 10 -16 -34 -113 -47 -105 -6 4 -8 0 -5 -9 4 -8 -2 -29 -12
-46 -20 -33 -14 -47 15 -36 10 4 21 1 26 -7 7 -11 9 -11 9 -1 0 8 9 12 22 10
18 -2 27 6 41 37 11 22 24 43 29 46 5 3 9 10 9 15 0 5 2 17 5 27 5 15 19 17
105 17 87 0 99 -2 100 -17 0 -13 2 -14 6 -4 3 8 15 -7 29 -38 14 -29 21 -57
18 -63 -4 -6 -3 -8 3 -5 6 4 14 0 17 -9 3 -8 10 -12 16 -9 5 3 10 0 10 -7 0
-8 3 -9 8 -3 10 14 55 12 67 -3 9 -11 17 -10 43 5 28 16 34 16 42 3 6 -10 10
-11 10 -2 0 6 5 12 11 12 5 0 7 -6 3 -12 -4 -7 3 -4 15 6 15 14 21 16 18 5 -2
-8 -2 -11 0 -7 2 4 12 4 21 1 13 -4 12 -2 -3 10 -16 13 -17 17 -6 31 7 9 18
13 23 9 6 -3 8 0 6 8 -5 13 25 77 57 122 13 18 14 18 30 -7 10 -15 14 -33 11
-43 -4 -10 -4 -14 0 -11 10 11 32 -15 26 -31 -3 -9 -1 -12 6 -7 11 7 17 -7 12
-29 -1 -5 2 -7 6 -3 12 13 34 -25 22 -39 -6 -7 -9 -13 -7 -14 31 -6 40 -6 45
2 8 13 48 11 63 -3 8 -7 11 -8 8 -2 -3 6 0 11 7 11 8 0 12 -6 9 -14 -3 -7 0
-13 7 -13 6 0 8 5 5 10 -3 6 -1 10 5 10 8 0 8 4 0 13 -41 49 -49 61 -43 71 12
19 10 43 -3 43 -15 0 -14 -18 1 -29 6 -5 5 -8 -3 -8 -7 0 -16 8 -19 18 -4 9
-20 36 -35 58 -15 23 -28 46 -28 52 0 5 -7 15 -15 22 -9 8 -13 21 -10 34 4 13
3 16 -2 9 -6 -9 -12 -7 -21 7 -6 10 -8 22 -3 25 5 3 23 29 39 59 17 29 38 56
47 60 10 3 15 12 12 20 -3 7 5 26 19 42 13 16 23 35 24 42 0 9 7 11 20 7 11
-4 20 -2 20 4 0 6 -5 10 -11 9 -22 -5 -18 33 4 42 17 7 18 9 5 9 -9 1 -23 -7
-30 -17 -21 -30 -119 -19 -102 11 4 7 3 8 -1 4 -12 -10 -15 -38 -4 -31 16 9
10 -4 -29 -66 -21 -33 -42 -57 -46 -53 -4 5 -7 1 -5 -7 3 -20 -11 -50 -23 -50
-6 0 -7 8 -4 17 4 10 4 14 0 11 -6 -7 -57 70 -81 123 -10 24 -16 26 -60 24
-27 -2 -51 2 -55 9 -5 6 -7 -5 -5 -25 1 -24 6 -35 15 -32 6 3 12 0 12 -6 0 -6
12 -29 26 -51 15 -22 23 -44 18 -51 -4 -8 -3 -9 5 -5 7 5 16 -3 24 -21 7 -15
21 -41 31 -56 l19 -28 -36 -67 c-20 -37 -41 -66 -47 -64 -6 1 -9 -2 -5 -7 10
-16 -26 -63 -43 -56 -11 4 -12 2 -4 -8 8 -9 5 -21 -10 -45 -11 -17 -24 -29
-29 -26 -5 3 -6 10 -3 16 4 7 2 8 -5 4 -9 -6 -8 -14 4 -33 10 -15 12 -22 4
-18 -8 5 -10 4 -5 -3 4 -7 3 -12 -2 -12 -8 0 -14 17 -27 75 -1 6 -3 16 -3 23
-1 7 -6 11 -11 8 -5 -3 -11 2 -14 12 -4 9 -13 32 -21 50 -9 18 -11 30 -6 27
17 -10 11 0 -15 31 -14 16 -23 35 -20 42 2 6 1 12 -3 12 -11 0 -47 82 -44 98
2 8 -1 11 -6 8 -18 -11 -22 25 -6 52 15 25 15 25 0 8 -9 -11 -17 -18 -19 -15
-16 20 -55 108 -50 113 4 3 1 6 -6 6 -7 0 -9 5 -6 10 3 6 1 10 -4 10 -6 0 -11
9 -11 19 0 10 -7 21 -14 24 -10 4 -13 1 -10 -7z m35 -261 c8 -22 14 -44 14
-50 0 -5 6 -15 14 -21 23 -18 2 -34 -45 -34 -34 0 -43 3 -38 13 5 8 2 7 -9 -2
-10 -8 -20 -11 -24 -7 -4 3 2 13 13 22 10 8 13 12 6 9 -10 -5 -9 3 3 32 9 21
19 44 22 51 3 6 9 12 14 12 4 0 6 8 2 18 -4 11 -3 14 4 7 6 -5 17 -28 24 -50z"/>
<path d="M1010 950 c0 -5 5 -10 11 -10 5 0 7 5 4 10 -3 6 -8 10 -11 10 -2 0
-4 -4 -4 -10z"/>
<path d="M1634 948 c-4 -6 -3 -8 4 -4 5 3 12 1 14 -6 3 -8 6 -9 11 -1 4 6 0
13 -8 17 -8 3 -17 0 -21 -6z"/>
<path d="M4851 944 c0 -11 3 -14 6 -6 3 7 2 16 -1 19 -3 4 -6 -2 -5 -13z"/>
<path d="M4995 940 c-10 -11 -20 -18 -24 -16 -3 2 -6 -126 -6 -284 0 -159 2
-286 4 -284 3 2 16 -6 30 -18 l26 -23 -19 23 -19 22 36 0 c21 0 37 -5 37 -10
0 -7 5 -6 13 1 9 9 12 80 12 289 0 209 -3 280 -12 289 -8 7 -13 8 -13 1 0 -5
-16 -10 -37 -10 -35 0 -36 0 -18 20 10 11 16 20 13 20 -3 0 -13 -9 -23 -20z"/>
<path d="M5795 950 c3 -5 8 -10 11 -10 2 0 4 5 4 10 0 6 -5 10 -11 10 -5 0 -7
-4 -4 -10z"/>
<path d="M6250 945 c-15 -18 -81 -20 -99 -2 -11 10 -13 10 -7 0 4 -8 2 -14 -6
-14 -7 -1 -24 -3 -38 -4 -13 -1 -26 -8 -28 -14 -2 -6 -10 -11 -17 -11 -8 0
-17 -5 -21 -12 -5 -7 -3 -8 6 -3 9 6 11 4 5 -6 -21 -34 -51 -75 -68 -91 -10
-9 -14 -18 -9 -20 5 -2 5 -17 0 -36 -5 -18 -13 -30 -18 -27 -6 3 -7 -1 -4 -9
3 -9 9 -14 13 -12 4 3 8 -6 9 -19 1 -13 -3 -27 -9 -31 -6 -3 -9 1 -7 11 2 10
-2 20 -8 22 -7 2 -11 -6 -10 -20 1 -20 5 -24 25 -20 20 3 22 2 12 -11 -8 -10
-9 -16 -1 -21 5 -3 10 -15 10 -25 0 -33 69 -170 86 -170 8 0 12 4 9 10 -3 6 1
7 9 4 9 -3 16 -13 16 -21 0 -8 5 -11 10 -8 6 3 10 -2 10 -12 0 -14 2 -15 9 -5
9 14 19 15 36 3 23 -16 71 -12 89 8 23 25 15 37 -29 45 -20 4 -33 11 -30 17 4
5 -1 9 -10 9 -9 0 -28 9 -41 19 -24 19 -24 20 -4 26 11 3 20 14 20 23 0 13 -3
13 -16 -4 -15 -19 -16 -19 -9 1 3 11 3 16 -1 12 -4 -4 -14 -1 -23 6 -14 11
-14 10 -2 -6 8 -9 12 -19 10 -21 -2 -2 -14 9 -26 24 l-22 27 27 -3 c21 -3 19
-1 -7 7 -24 7 -31 13 -22 19 10 6 9 10 -5 18 -32 18 -6 27 86 30 l87 4 6 -44
c9 -78 8 -120 -3 -113 -5 3 -10 1 -10 -4 0 -6 5 -11 12 -11 6 0 3 -7 -8 -15
-14 -11 -15 -14 -2 -9 11 3 25 -6 45 -30 15 -20 33 -36 40 -36 6 0 14 -8 16
-17 4 -17 5 -17 6 0 0 10 7 17 14 16 25 -4 72 14 89 34 14 19 18 19 35 7 16
-14 17 -13 5 1 -10 14 -8 19 13 33 22 15 25 15 25 1 0 -9 -4 -14 -9 -10 -17
10 -21 -12 -5 -26 12 -10 15 -10 12 2 -2 8 2 13 9 12 13 -3 7 22 -10 45 -9 12
-8 13 12 16 14 2 26 16 13 16 -6 0 -9 7 -6 15 4 8 10 13 14 10 4 -2 7 3 7 13
0 58 5 81 23 100 19 20 19 22 3 22 -15 0 -15 2 3 14 10 8 16 18 11 22 -4 4 -7
2 -7 -4 0 -7 -4 -12 -10 -12 -6 0 -9 3 -8 8 1 4 -3 24 -10 45 -6 21 -9 47 -7
57 2 11 -1 20 -6 20 -6 0 -7 5 -4 10 3 6 0 10 -8 10 -8 0 -23 11 -33 25 -10
14 -25 25 -32 25 -7 0 -15 7 -18 15 -4 8 -11 12 -17 8 -6 -4 -8 0 -4 10 3 8 0
18 -8 21 -9 3 -12 0 -9 -9 6 -15 -12 -15 -35 -1 -8 5 -12 5 -8 0 8 -14 -66
-10 -82 4 -11 11 -15 11 -22 1 -4 -8 -11 -10 -15 -6 -4 3 -1 13 6 22 7 8 10
15 7 15 -2 0 -10 -7 -17 -15z m-4 -97 c0 -10 -5 -18 -10 -18 -6 0 -5 -5 2 -12
7 -7 12 -38 12 -69 0 -46 -3 -59 -17 -63 -29 -8 -190 -4 -205 5 -10 7 -9 9 4
9 9 0 20 4 23 10 3 5 0 7 -9 4 -19 -7 -15 25 6 40 8 6 13 17 10 24 -6 18 18
44 35 38 7 -3 13 1 13 9 0 7 5 17 11 20 6 4 9 0 7 -10 -2 -10 4 -20 12 -22 11
-3 11 -2 3 4 -18 13 0 34 38 43 50 11 65 8 65 -12z m79 2 c-3 -6 1 -7 10 -4
25 10 65 -4 59 -20 -5 -13 27 -40 48 -41 3 0 18 -13 33 -29 19 -20 23 -32 16
-39 -13 -13 -15 -30 -2 -22 5 3 12 1 16 -4 4 -7 -31 -10 -95 -9 l-101 1 2 89
c1 48 6 88 11 88 5 0 6 -4 3 -10z m115 -54 c0 -4 -9 -1 -19 6 -11 7 -17 16
-15 20 5 8 34 -15 34 -26z m57 -196 c1 -11 -2 -20 -5 -20 -4 0 -8 -9 -9 -21
-2 -25 -22 -51 -33 -44 -5 3 -10 -5 -12 -17 -3 -26 -21 -27 -26 -2 -2 9 0 14
5 11 5 -3 10 4 10 16 2 22 2 22 -13 2 -8 -11 -13 -28 -10 -37 2 -10 0 -18 -6
-18 -5 0 -6 -4 -3 -10 6 -9 -8 -15 -29 -11 -5 1 -12 -3 -16 -10 -4 -6 -13 -8
-19 -5 -6 4 -9 12 -6 17 4 5 1 9 -5 9 -19 0 -9 143 10 152 8 4 49 7 90 7 69 1
76 -1 77 -19z m-437 -171 c0 -6 -4 -7 -10 -4 -5 3 -10 11 -10 16 0 6 5 7 10 4
6 -3 10 -11 10 -16z"/>
<path d="M6156 841 c-4 -5 3 -7 14 -4 23 6 26 13 6 13 -8 0 -17 -4 -20 -9z"/>
<path d="M6200 809 c0 -5 5 -7 10 -4 6 3 10 8 10 11 0 2 -4 4 -10 4 -5 0 -10
-5 -10 -11z"/>
<path d="M6045 740 c-3 -5 -1 -10 4 -10 6 0 11 5 11 10 0 6 -2 10 -4 10 -3 0
-8 -4 -11 -10z"/>
<path d="M6410 764 c0 -8 5 -12 10 -9 6 4 8 11 5 16 -9 14 -15 11 -15 -7z"/>
<path d="M6465 739 c-4 -6 -5 -12 -2 -15 2 -3 7 2 10 11 7 17 1 20 -8 4z"/>
<path d="M6438 551 c8 -4 13 -11 13 -15 -1 -3 1 -6 4 -6 3 0 8 0 11 0 4 0 1 7
-6 15 -7 8 -18 15 -24 15 -7 0 -6 -4 2 -9z"/>
<path d="M6297 950 c7 -8 20 -15 29 -16 9 -1 13 1 9 4 -4 4 -10 7 -13 7 -4 0
-14 4 -22 9 -12 7 -13 6 -3 -4z"/>
<path d="M6347 944 c2 -7 11 -10 19 -7 19 7 18 10 -5 16 -13 3 -18 1 -14 -9z"/>
<path d="M6470 952 c0 -6 -8 -9 -17 -6 -15 5 -16 4 -3 -5 16 -11 40 3 27 16
-4 3 -7 1 -7 -5z"/>
<path d="M7837 952 c-12 -2 -16 -9 -13 -20 5 -14 4 -14 -8 1 -13 17 -14 16
-12 -7 0 -13 4 -22 9 -19 15 9 5 -24 -26 -82 -30 -55 -57 -81 -57 -53 0 6 -11
-2 -25 -18 -13 -15 -22 -30 -20 -32 3 -3 13 6 24 19 11 13 20 19 21 14 0 -6
-6 -17 -12 -24 -11 -10 -10 -11 5 -6 23 10 22 -10 -3 -35 -12 -12 -18 -25 -15
-30 4 -6 -1 -13 -9 -16 -9 -3 -14 -10 -11 -14 3 -5 1 -11 -4 -15 -6 -3 -8 -12
-5 -19 3 -8 1 -17 -5 -21 -6 -3 -9 0 -5 8 3 10 -2 14 -17 13 -12 0 -24 -7 -27
-13 -5 -17 15 -17 22 0 4 6 4 2 2 -11 -2 -12 0 -20 5 -16 12 7 11 -8 -2 -26
-8 -11 -12 -12 -16 -2 -2 6 -9 10 -14 6 -11 -6 -12 -24 -1 -23 19 3 22 -3 10
-23 -7 -13 -11 -26 -10 -30 1 -5 -3 -8 -9 -8 -5 0 -8 -4 -5 -8 3 -5 -2 -18
-12 -28 -18 -20 -25 -77 -8 -67 5 4 7 -1 3 -13 -7 -18 -6 -18 7 -1 17 22 73
22 98 0 22 -20 28 -15 34 29 4 26 2 30 -6 18 -15 -20 -10 -6 20 58 l25 52 88
0 c87 0 88 0 82 -22 -5 -22 -5 -21 10 2 l16 25 -5 -33 c-3 -18 -2 -31 3 -28 5
3 14 -1 21 -9 11 -13 10 -14 -3 -10 -8 4 -18 1 -23 -6 -4 -7 -3 -10 4 -6 13 9
42 -2 42 -16 0 -6 8 -19 17 -29 16 -18 16 -18 -3 -12 -13 5 -16 4 -9 -3 16
-17 55 -26 55 -13 0 6 -4 8 -10 5 -5 -3 -10 -2 -10 4 0 17 59 9 63 -8 4 -13 5
-13 6 2 0 10 6 15 11 12 6 -4 8 -12 4 -18 -3 -7 4 -1 15 12 12 13 21 28 20 35
0 7 -2 7 -6 -1 -2 -7 -9 -13 -14 -13 -6 0 -8 4 -5 8 3 5 -10 39 -28 77 -19 37
-33 78 -31 91 1 14 -3 24 -10 24 -7 0 -21 17 -30 38 -10 20 -31 66 -47 101
-17 35 -31 76 -32 92 -1 16 -10 35 -19 41 -15 12 -42 65 -39 79 3 14 -44 45
-61 41z m25 -298 c-14 -10 -15 -15 -4 -25 16 -17 15 -29 -1 -29 -25 0 -36 21
-24 44 7 11 16 24 21 27 5 4 5 13 2 20 -4 8 -1 5 8 -5 14 -17 14 -20 -2 -32z
m23 -14 c-3 -5 -11 -10 -16 -10 -6 0 -7 5 -4 10 3 6 11 10 16 10 6 0 7 -4 4
-10z m-170 -289 c3 -5 2 -12 -3 -15 -5 -3 -9 1 -9 9 0 17 3 19 12 6z"/>
<path d="M629 937 c7 -10 10 -17 5 -18 -25 -3 -60 4 -66 15 -6 8 -8 8 -8 -1 0
-18 -170 -18 -170 0 0 8 -4 7 -10 -3 -13 -20 -13 -560 0 -580 6 -10 10 -11 10
-2 0 7 15 12 40 12 l40 0 1 108 c1 59 2 115 2 125 0 15 9 17 66 16 66 -1 113
10 126 31 3 5 11 8 16 4 5 -3 9 -2 8 3 -1 4 6 26 16 48 13 30 16 52 10 90 -4
27 -7 58 -6 68 0 9 -4 15 -8 13 -4 -3 -20 8 -35 23 -15 16 -23 30 -17 32 6 2
1 10 -11 18 -21 13 -22 13 -9 -2z m-47 -123 c23 -12 28 -21 28 -53 0 -50 -19
-65 -84 -66 l-51 0 -1 60 c-2 82 1 88 45 80 19 -4 48 -13 63 -21z"/>
<path d="M2308 940 c-2 -6 -15 -13 -30 -13 -14 -1 -24 -5 -22 -8 2 -4 -10 -12
-26 -19 -41 -17 -108 -84 -116 -116 -5 -19 -9 -22 -15 -12 -6 9 -9 6 -9 -12
-1 -14 -2 -69 -4 -122 -2 -63 0 -98 7 -98 6 0 7 -3 4 -6 -8 -8 20 -59 51 -94
12 -14 20 -31 17 -38 -3 -7 0 -10 5 -7 6 3 10 0 10 -7 0 -11 2 -11 9 0 6 10
10 10 21 -2 7 -9 31 -21 53 -27 23 -6 35 -14 29 -18 -13 -8 93 -6 157 4 25 4
52 12 59 17 9 8 19 5 35 -8 19 -17 20 -17 8 -1 -11 14 -11 21 -3 29 18 18 16
125 -3 125 -8 0 -12 -3 -10 -7 2 -3 -21 -19 -52 -35 -46 -23 -59 -26 -74 -16
-15 9 -19 8 -17 -1 3 -15 -65 -12 -70 2 -2 5 -9 7 -17 4 -7 -3 -32 13 -54 35
-44 44 -52 64 -23 55 13 -4 12 -2 -3 7 -30 18 -36 31 -31 62 3 15 1 27 -4 27
-6 0 -6 9 -1 23 5 12 8 24 8 27 -3 46 96 157 114 128 7 -10 9 -8 9 5 0 13 9
17 39 17 22 0 42 -5 44 -12 3 -8 6 -9 6 -2 2 24 103 -8 131 -41 13 -16 15 -16
21 2 14 34 10 93 -6 99 -8 4 -12 10 -9 15 3 5 -3 6 -12 2 -13 -5 -15 -3 -9 7
6 9 4 11 -5 5 -7 -4 -16 -2 -20 5 -4 7 -29 14 -56 16 -27 2 -64 5 -81 8 -20 2
-33 -1 -33 -8 0 -6 -4 -5 -9 3 -6 10 -10 10 -13 1z"/>
<path d="M4110 941 c0 -4 11 -6 25 -3 14 2 25 6 25 8 0 2 -11 4 -25 4 -14 0
-25 -4 -25 -9z"/>
<path d="M4808 943 c7 -3 16 -2 19 1 4 3 -2 6 -13 5 -11 0 -14 -3 -6 -6z"/>
<path d="M4868 938 c-5 -14 -13 -15 -225 -17 l-163 -1 0 -40 0 -40 63 -1 c34
-1 67 -1 74 0 9 1 12 -53 12 -225 0 -202 -2 -229 -17 -241 -16 -12 -16 -13 1
-7 9 3 17 2 17 -2 0 -13 100 -11 100 1 1 6 1 109 0 230 0 121 4 226 8 233 11
16 120 11 131 -7 4 -6 8 20 8 59 0 71 -2 80 -9 58z"/>
<path d="M6007 939 c7 -7 15 -10 18 -7 3 3 -2 9 -12 12 -14 6 -15 5 -6 -5z"/>
<path d="M686 925 c-3 -8 -1 -15 4 -15 6 0 10 7 10 15 0 8 -2 15 -4 15 -2 0
-6 -7 -10 -15z"/>
<path d="M2667 929 c7 -7 15 -10 18 -7 3 3 -2 9 -12 12 -14 6 -15 5 -6 -5z"/>
<path d="M3115 930 c-4 -6 -15 -8 -26 -5 -18 6 -19 0 -19 -99 l0 -106 -131 0
-130 0 1 93 c1 50 1 97 1 102 -1 6 -25 9 -53 9 l-53 -2 0 -282 0 -282 53 -2
c28 0 52 3 53 9 0 6 0 61 -1 124 -1 105 0 113 17 107 17 -6 17 -5 1 8 -10 7
-18 16 -18 20 0 3 57 6 126 6 110 0 125 -2 120 -16 -3 -8 -2 -12 4 -9 17 11
11 -7 -7 -21 -17 -13 -17 -14 0 -8 16 6 17 -4 17 -111 0 -104 2 -116 16 -111
9 4 24 1 32 -6 12 -10 14 -10 8 0 -9 15 8 16 34 2 16 -9 18 -7 15 10 -2 11 0
20 6 20 5 0 9 5 9 11 0 5 -4 7 -10 4 -7 -4 -10 80 -10 245 0 165 3 249 10 245
6 -3 10 -1 10 4 0 6 -4 11 -9 11 -6 0 -8 9 -6 20 3 17 1 19 -15 10 -24 -13
-43 -13 -35 0 3 6 4 10 1 10 -3 0 -8 -5 -11 -10z"/>
<path d="M4171 933 c-14 -3 -35 -12 -48 -20 -21 -14 -28 -11 -24 10 1 5 -3 6
-9 2 -8 -5 -8 -11 0 -20 7 -9 6 -16 -3 -24 -8 -6 -16 -8 -19 -5 -3 3 -6 -1 -5
-8 1 -30 -4 -49 -11 -44 -5 3 -5 -22 -1 -55 5 -41 14 -68 28 -83 12 -12 18
-26 14 -31 -5 -4 -1 -5 7 -3 8 3 28 -6 44 -21 16 -14 26 -20 21 -12 -8 14 34
-10 69 -38 10 -9 21 -16 25 -16 3 0 5 -3 4 -7 -2 -4 4 -5 12 -2 8 4 15 5 15 3
1 -2 3 -21 6 -42 7 -44 -8 -67 -41 -67 -13 0 -25 -5 -27 -11 -8 -25 -108 37
-108 68 0 11 -6 11 -32 0 -33 -13 -64 -57 -49 -67 4 -3 15 -18 23 -35 8 -16
20 -29 26 -27 7 1 12 -2 12 -7 0 -8 37 -24 53 -22 4 1 7 -2 7 -6 0 -11 90 -7
120 5 16 6 26 6 29 0 2 -5 10 0 18 12 14 20 16 20 29 3 13 -17 14 -17 7 1 -5
14 -3 17 7 11 9 -6 11 -4 5 5 -4 7 -2 16 5 20 7 5 15 23 17 42 2 18 7 34 12
36 13 4 -6 103 -24 122 -12 14 -13 20 -4 26 8 5 10 3 4 -6 -5 -9 -4 -11 3 -6
19 12 14 23 -10 24 -30 0 -110 46 -101 57 5 4 3 5 -4 1 -14 -8 -73 19 -73 33
0 5 5 11 11 13 7 2 4 10 -7 18 -16 14 -17 13 -11 -2 3 -10 2 -18 -3 -18 -6 0
-10 7 -10 16 0 8 -4 12 -10 9 -6 -4 -10 6 -10 22 0 21 8 32 31 45 16 10 28 14
25 9 -5 -8 30 -25 47 -22 4 1 7 -4 7 -10 0 -5 5 -7 11 -3 8 4 7 9 -2 15 -7 4
-16 6 -19 4 -3 -1 -11 3 -18 11 -7 8 -10 14 -7 14 14 0 65 -31 65 -40 0 -15
60 -8 70 9 7 12 9 13 10 2 0 -8 3 -11 7 -7 16 16 6 43 -29 79 -34 35 -42 39
-100 42 -35 1 -74 1 -87 -2z"/>
<path d="M5497 646 c1 -158 4 -290 7 -293 8 -8 126 -9 126 0 0 4 11 5 25 3 32
-6 31 -1 -2 30 -27 25 -33 67 -17 117 4 12 2 17 -4 13 -6 -3 -9 5 -8 19 0 14
5 25 9 25 5 0 5 5 1 12 -4 7 -3 8 4 4 7 -4 12 -14 12 -22 0 -8 4 -14 10 -14 5
0 12 -11 16 -25 3 -14 10 -23 14 -20 5 3 12 0 16 -6 4 -7 3 -9 -4 -5 -6 4 -10
-1 -9 -13 1 -14 5 -17 12 -11 15 12 35 -8 28 -27 -3 -8 0 -13 8 -11 8 2 13 -3
11 -9 -1 -7 4 -13 11 -13 7 0 13 -9 13 -19 0 -11 -4 -17 -8 -15 -4 3 -8 0 -8
-6 0 -6 11 -10 24 -8 13 1 31 -3 40 -11 10 -9 16 -10 16 -2 0 6 17 11 40 11
22 0 40 -4 40 -10 0 -5 5 -10 10 -10 6 0 10 6 10 14 0 8 7 17 16 20 22 8 26 8
20 -3 -4 -5 0 -12 6 -14 10 -4 10 -6 1 -6 -17 -1 -17 -18 0 -18 7 0 13 11 13
24 0 13 -3 23 -7 23 -3 0 -22 13 -40 30 -19 16 -38 30 -42 30 -5 0 -5 5 -2 10
3 6 1 10 -6 10 -8 0 -8 4 1 15 7 9 10 18 6 22 -3 3 -6 1 -6 -5 0 -7 -5 -12
-11 -12 -13 0 -55 51 -51 62 1 5 -3 8 -9 8 -5 0 -7 5 -4 10 5 8 12 7 23 -2 15
-12 16 -11 3 5 -8 10 -22 16 -33 14 -10 -3 -18 -1 -18 4 0 5 -11 19 -25 31
-19 16 -22 24 -13 30 10 6 10 8 0 8 -7 0 -10 5 -7 10 4 6 1 9 -6 8 -22 -5 -16
26 11 51 14 14 25 29 25 35 0 6 10 15 23 21 12 5 22 14 22 20 0 6 9 16 20 23
12 7 18 17 15 22 -6 10 34 42 45 35 4 -2 7 9 8 25 1 38 -9 43 -77 41 -76 -2
-81 -3 -75 -13 3 -4 -7 -20 -23 -35 -15 -16 -28 -32 -28 -38 0 -5 -8 -9 -17
-9 -9 1 -14 -4 -12 -11 7 -16 -22 -38 -38 -29 -11 6 -11 5 0 -8 10 -12 9 -18
-3 -28 -12 -10 -15 -9 -16 6 0 11 -1 42 -2 71 -1 28 1 49 6 46 4 -2 7 1 7 6 0
6 -5 11 -11 11 -8 0 -7 5 1 15 7 9 10 18 6 22 -3 3 -6 2 -6 -3 0 -5 -29 -7
-67 -4 l-68 5 2 -289z"/>
<path d="M6946 933 c-4 -4 -59 -6 -122 -4 l-114 3 -1 -279 c0 -153 -3 -272 -6
-265 -7 17 -23 15 -23 -3 0 -8 6 -15 14 -15 8 0 16 -4 18 -9 5 -14 96 -17 110
-3 7 7 17 12 24 12 6 0 17 6 23 14 10 12 8 14 -14 12 l-25 -3 2 83 c1 45 6 80
11 77 5 -3 6 -7 3 -10 -3 -3 2 -12 10 -20 8 -9 13 -22 10 -29 -3 -8 1 -14 8
-14 8 0 16 -9 19 -21 3 -11 15 -23 27 -26 13 -3 19 -11 16 -19 -3 -8 1 -14 9
-14 9 0 15 -10 15 -26 0 -14 4 -23 8 -20 5 3 22 1 38 -4 16 -4 21 -9 12 -9
-10 -1 -18 -5 -18 -10 0 -11 47 -8 58 4 4 4 0 5 -8 0 -9 -5 -12 -5 -7 1 11 11
57 13 57 2 0 -4 5 -8 10 -8 6 0 9 18 8 40 -2 24 -8 40 -15 40 -7 0 -13 7 -13
15 0 8 -5 15 -11 15 -8 0 -7 5 1 15 7 9 10 18 6 22 -3 3 -6 1 -6 -5 0 -7 -5
-12 -11 -12 -5 0 -7 4 -4 10 3 6 0 10 -7 10 -7 0 -19 9 -26 21 -8 12 -9 18 -3
14 6 -3 11 -4 11 -1 0 3 -14 13 -30 21 -17 9 -28 20 -25 25 4 6 0 10 -7 10 -9
0 -9 3 2 10 13 9 13 10 0 11 -8 1 -19 1 -23 0 -5 -1 -6 3 -2 9 3 6 10 8 15 5
4 -3 10 0 12 7 3 9 11 10 28 2 16 -7 20 -13 12 -18 -7 -4 -12 -2 -12 3 0 6 -5
11 -10 11 -6 0 -3 -11 6 -25 8 -13 13 -29 9 -34 -3 -7 0 -8 9 -5 9 3 16 13 16
21 0 8 -4 11 -10 8 -5 -3 -10 -1 -10 4 0 6 5 11 10 11 14 0 13 37 -2 46 -7 5
-8 3 -3 -6 5 -9 4 -11 -4 -6 -8 5 -9 12 -2 20 6 7 18 28 26 47 14 31 16 31 12
7 -2 -15 0 -25 4 -22 13 7 11 42 -2 49 -6 4 -9 24 -6 46 3 27 -2 48 -16 71
-10 18 -21 39 -22 48 -1 8 -9 14 -17 12 -9 -1 -22 5 -29 15 -12 14 -12 16 0 8
10 -5 12 -4 7 3 -8 14 -19 15 -30 5z m-64 -128 c12 2 15 -2 10 -13 -5 -15 -4
-16 13 -2 17 14 18 13 12 -2 -3 -9 -1 -19 6 -21 16 -5 -50 -67 -73 -67 -15 0
-18 9 -18 53 0 47 15 78 28 58 3 -5 13 -7 22 -6z"/>
<path d="M3795 921 c-3 -6 -1 -11 6 -11 8 0 7 -5 -2 -17 -10 -11 -10 -14 -1
-9 9 6 12 -46 12 -244 0 -198 -3 -250 -12 -244 -9 5 -9 2 1 -9 11 -14 11 -17
0 -17 -8 0 -9 -3 -4 -8 6 -5 34 -7 63 -4 l52 4 0 279 0 279 -39 0 c-22 0 -46
3 -54 6 -8 3 -18 1 -22 -5z"/>
<path d="M7190 640 l0 -290 163 0 c144 0 165 3 187 20 14 10 21 22 17 26 -4 4
-7 2 -7 -4 0 -7 -4 -12 -10 -12 -5 0 -10 20 -10 45 l0 45 -92 2 c-51 1 -101 2
-110 1 -15 0 -18 9 -18 49 0 26 5 48 10 48 6 0 10 9 10 20 0 11 5 20 11 20 5
0 7 -6 3 -12 -6 -10 -5 -10 7 -1 9 7 47 12 92 12 42 0 80 2 85 4 4 3 5 28 4
56 l-4 51 -109 0 -109 0 0 38 c0 40 18 76 27 55 2 -7 9 -13 14 -13 6 0 7 5 4
10 -4 6 27 10 84 10 l91 0 0 55 0 55 -170 0 -170 0 0 -290z"/>
<path d="M3330 640 l0 -280 40 0 c27 0 42 -6 49 -17 6 -10 11 -13 11 -8 1 6 3
18 5 28 2 9 -1 14 -7 11 -6 -4 -8 35 -7 105 1 61 6 110 11 109 5 -2 10 -8 10
-13 0 -6 9 -16 19 -23 24 -16 24 -41 2 -59 -16 -13 -16 -13 4 -4 33 17 39 14
57 -24 9 -19 21 -35 26 -35 5 0 19 -17 31 -39 21 -38 22 -39 78 -36 30 2 59
-1 62 -7 3 -5 6 4 5 20 -1 19 -5 28 -13 25 -7 -3 -13 -1 -13 4 0 4 -11 20 -23
33 -13 14 -23 34 -21 44 2 12 -2 16 -12 12 -8 -3 -14 1 -14 8 0 8 -7 16 -15
20 -8 3 -15 11 -15 18 0 7 -9 19 -20 26 -12 7 -18 17 -15 21 3 5 0 11 -7 13
-16 6 0 28 20 28 15 0 15 -2 2 -11 -13 -9 -13 -10 0 -6 8 2 14 10 12 16 -1 6
9 16 23 21 14 5 24 15 23 22 -2 7 2 12 8 11 7 -1 10 5 7 15 -2 9 0 28 5 42 5
13 5 40 1 59 -9 39 -3 54 11 31 6 -8 10 -10 10 -4 0 14 -25 36 -32 28 -3 -2
-8 2 -12 11 -4 11 -2 14 7 9 6 -3 -1 5 -18 19 -16 14 -33 23 -37 21 -4 -2 -9
0 -13 6 -4 6 -55 10 -126 10 l-119 0 0 -280z m193 178 c23 -12 39 -52 30 -75
-12 -31 -47 -52 -85 -53 l-38 0 0 75 0 76 38 -7 c20 -4 45 -11 55 -16z"/>
<path d="M4376 911 c-3 -5 2 -15 12 -22 15 -12 16 -12 5 2 -7 9 -10 19 -6 22
3 4 4 7 0 7 -3 0 -8 -4 -11 -9z"/>
<path d="M6006 883 c0 -12 4 -26 9 -30 4 -5 5 -2 1 5 -4 6 -3 12 1 12 5 0 9 8
9 18 0 10 -5 19 -11 19 -6 0 -10 -11 -9 -24z"/>
<path d="M6681 894 c0 -11 3 -14 6 -6 3 7 2 16 -1 19 -3 4 -6 -2 -5 -13z"/>
<path d="M688 893 c7 -3 16 -2 19 1 4 3 -2 6 -13 5 -11 0 -14 -3 -6 -6z"/>
<path d="M7541 874 c0 -11 3 -14 6 -6 3 7 2 16 -1 19 -3 4 -6 -2 -5 -13z"/>
<path d="M7784 882 c-7 -4 -8 -15 -3 -27 6 -17 11 -11 8 11 0 4 5 11 13 15 7
5 9 9 3 9 -5 0 -15 -4 -21 -8z"/>
<path d="M1446 868 c3 -5 10 -6 15 -3 13 9 11 12 -6 12 -8 0 -12 -4 -9 -9z"/>
<path d="M1555 869 c-4 -6 -5 -12 -2 -15 2 -3 7 2 10 11 7 17 1 20 -8 4z"/>
<path d="M2147 869 c7 -7 15 -10 18 -7 3 3 -2 9 -12 12 -14 6 -15 5 -6 -5z"/>
<path d="M1068 825 c2 -14 6 -25 8 -25 2 0 4 11 4 25 0 14 -4 25 -9 25 -4 0
-6 -11 -3 -25z"/>
<path d="M5887 824 c-10 -13 -13 -24 -7 -24 5 0 10 6 10 13 0 9 2 9 9 -1 7
-11 9 -11 14 1 10 27 -8 35 -26 11z"/>
<path d="M4851 814 c0 -11 3 -14 6 -6 3 7 2 16 -1 19 -3 4 -6 -2 -5 -13z"/>
<path d="M4210 810 c13 -9 13 -11 0 -20 -12 -7 -10 -9 7 -7 17 1 20 5 12 19
-5 10 -15 18 -22 18 -8 0 -6 -4 3 -10z"/>
<path d="M4808 813 c7 -3 16 -2 19 1 4 3 -2 6 -13 5 -11 0 -14 -3 -6 -6z"/>
<path d="M4013 795 c-3 -9 -3 -19 1 -22 3 -4 6 1 6 11 0 10 5 14 12 10 7 -4 8
-3 4 4 -10 16 -15 15 -23 -3z"/>
<path d="M4602 598 c2 -216 6 -191 10 70 2 78 0 142 -4 142 -5 0 -7 -96 -6
-212z"/>
<path d="M2525 760 c-3 -5 -1 -10 4 -10 6 0 11 5 11 10 0 6 -2 10 -4 10 -3 0
-8 -4 -11 -10z"/>
<path d="M1640 741 c0 -5 7 -12 16 -15 14 -5 15 -4 4 9 -14 17 -20 19 -20 6z"/>
<path d="M5925 719 c-4 -6 -5 -12 -2 -15 2 -3 7 2 10 11 7 17 1 20 -8 4z"/>
<path d="M7084 719 c-4 -7 -3 -9 4 -5 6 3 13 -2 15 -11 4 -16 5 -16 6 -1 1 21
-15 32 -25 17z"/>
<path d="M4035 690 c3 -5 8 -10 11 -10 2 0 4 5 4 10 0 6 -5 10 -11 10 -5 0 -7
-4 -4 -10z"/>
<path d="M4335 680 c3 -5 10 -10 16 -10 5 0 9 5 9 10 0 6 -7 10 -16 10 -8 0
-12 -4 -9 -10z"/>
<path d="M8010 676 c0 -2 8 -10 18 -17 15 -13 16 -12 3 4 -13 16 -21 21 -21
13z"/>
<path d="M5796 627 c3 -10 9 -15 12 -12 3 3 0 11 -7 18 -10 9 -11 8 -5 -6z"/>
<path d="M7607 621 c-4 -17 -3 -21 5 -13 5 5 8 16 6 23 -3 8 -7 3 -11 -10z"/>
<path d="M6587 623 c-4 -3 -7 -11 -7 -17 0 -6 5 -5 12 2 6 6 9 14 7 17 -3 3
-9 2 -12 -2z"/>
<path d="M1405 610 c-3 -5 -1 -10 4 -10 6 0 11 5 11 10 0 6 -2 10 -4 10 -3 0
-8 -4 -11 -10z"/>
<path d="M655 600 c-3 -5 1 -10 9 -10 9 0 16 5 16 10 0 6 -4 10 -9 10 -6 0
-13 -4 -16 -10z"/>
<path d="M2858 603 c7 -3 16 -2 19 1 4 3 -2 6 -13 5 -11 0 -14 -3 -6 -6z"/>
<path d="M8040 601 c0 -5 7 -11 15 -15 8 -3 15 -1 15 3 0 5 -7 11 -15 15 -8 3
-15 1 -15 -3z"/>
<path d="M1630 591 c0 -5 5 -13 10 -16 6 -3 10 -2 10 4 0 5 -4 13 -10 16 -5 3
-10 2 -10 -4z"/>
<path d="M5945 593 c3 -3 -1 -13 -8 -21 -8 -11 -8 -14 0 -9 6 4 14 1 17 -5 2
-7 4 -3 2 9 -1 12 -5 25 -9 28 -4 3 -5 2 -2 -2z"/>
<path d="M4130 550 c-8 -5 -10 -10 -5 -10 6 0 17 5 25 10 8 5 11 10 5 10 -5 0
-17 -5 -25 -10z"/>
<path d="M2495 510 c-10 -11 -16 -20 -13 -20 3 0 15 9 28 20 13 11 19 20 13
20 -5 0 -18 -9 -28 -20z"/>
<path d="M5654 521 c4 -6 2 -19 -5 -27 -10 -12 -9 -13 5 -8 19 7 21 30 4 40
-7 4 -8 3 -4 -5z"/>
<path d="M4140 513 c5 -2 8 -8 6 -12 -3 -4 0 -13 5 -21 7 -11 8 -9 6 9 -2 14
-9 26 -16 27 -6 1 -7 0 -1 -3z"/>
<path d="M5872 506 c7 -8 15 -12 17 -11 5 6 -10 25 -20 25 -5 0 -4 -6 3 -14z"/>
<path d="M1483 483 c-3 -10 -8 -22 -11 -28 -3 -5 1 -4 8 2 13 12 23 43 14 43
-3 0 -7 -8 -11 -17z"/>
<path d="M2290 469 c0 -5 5 -7 10 -4 6 3 10 8 10 11 0 2 -4 4 -10 4 -5 0 -10
-5 -10 -11z"/>
<path d="M5663 440 c0 -25 2 -35 4 -22 2 12 2 32 0 45 -2 12 -4 2 -4 -23z"/>
<path d="M1052 450 c0 -14 2 -19 5 -12 2 6 2 18 0 25 -3 6 -5 1 -5 -13z"/>
<path d="M5710 450 c0 -5 5 -10 11 -10 5 0 7 5 4 10 -3 6 -8 10 -11 10 -2 0
-4 -4 -4 -10z"/>
<path d="M6540 449 c0 -5 5 -7 10 -4 6 3 10 8 10 11 0 2 -4 4 -10 4 -5 0 -10
-5 -10 -11z"/>
<path d="M8133 444 c-3 -8 0 -25 6 -37 11 -22 11 -22 5 2 -4 16 -3 21 5 17 6
-4 11 -2 11 3 0 6 -6 11 -12 11 -9 0 -8 4 2 10 10 7 11 10 2 10 -7 0 -15 -7
-19 -16z"/>
<path d="M1300 439 c0 -5 5 -7 10 -4 6 3 10 8 10 11 0 2 -4 4 -10 4 -5 0 -10
-5 -10 -11z"/>
<path d="M2120 434 c0 -20 27 -37 36 -23 4 7 3 9 -4 5 -6 -3 -15 2 -21 11 -6
10 -11 13 -11 7z"/>
<path d="M6880 424 c0 -8 5 -12 10 -9 6 4 8 11 5 16 -9 14 -15 11 -15 -7z"/>
<path d="M7926 413 c-6 -14 -5 -15 5 -6 7 7 10 15 7 18 -3 3 -9 -2 -12 -12z"/>
<path d="M5730 410 c-9 -6 -10 -10 -3 -10 6 0 15 5 18 10 8 12 4 12 -15 0z"/>
<path d="M6015 410 c-3 -5 -1 -10 4 -10 6 0 11 5 11 10 0 6 -2 10 -4 10 -3 0
-8 -4 -11 -10z"/>
<path d="M3525 399 c-4 -6 -5 -12 -2 -15 2 -3 7 2 10 11 7 17 1 20 -8 4z"/>
<path d="M7744 362 c-1 -45 -1 -46 8 -14 5 18 5 39 1 47 -5 8 -9 -5 -9 -33z"/>
<path d="M4581 384 c0 -11 3 -14 6 -6 3 7 2 16 -1 19 -3 4 -6 -2 -5 -13z"/>
<path d="M3756 373 c-6 -14 -5 -15 5 -6 7 7 10 15 7 18 -3 3 -9 -2 -12 -12z"/>
<path d="M6267 383 c-15 -14 -6 -33 16 -32 18 1 18 2 4 6 -11 3 -16 11 -13 19
6 15 3 18 -7 7z"/>
<path d="M6450 382 c0 -5 7 -9 15 -9 8 0 12 4 9 9 -3 4 -9 8 -15 8 -5 0 -9 -4
-9 -8z"/>
<path d="M832 365 c-11 -12 -10 -15 3 -15 8 0 15 7 15 15 0 18 -2 18 -18 0z"/>
<path d="M6087 353 c3 -7 6 -13 8 -13 2 0 5 6 8 13 3 8 -1 14 -8 14 -7 0 -11
-6 -8 -14z"/>
<path d="M2665 350 c-3 -6 1 -7 9 -4 18 7 21 14 7 14 -6 0 -13 -4 -16 -10z"/>
<path d="M6157 349 c7 -7 15 -10 18 -7 3 3 -2 9 -12 12 -14 6 -15 5 -6 -5z"/>
<path d="M6826 343 c-6 -14 -5 -15 5 -6 7 7 10 15 7 18 -3 3 -9 -2 -12 -12z"/>
<path d="M1307 337 c-3 -8 3 -14 16 -15 12 0 17 2 12 6 -6 4 -13 11 -16 15 -4
4 -9 2 -12 -6z"/>
<path d="M6351 347 c2 -1 13 -9 24 -17 19 -14 19 -14 6 3 -7 9 -18 17 -24 17
-6 0 -8 -1 -6 -3z"/>
<path d="M818 333 c7 -3 16 -2 19 1 4 3 -2 6 -13 5 -11 0 -14 -3 -6 -6z"/>
<path d="M1167 329 c7 -7 15 -10 18 -7 3 3 -2 9 -12 12 -14 6 -15 5 -6 -5z"/>
<path d="M1667 329 c7 -7 15 -10 18 -7 3 3 -2 9 -12 12 -14 6 -15 5 -6 -5z"/>
<path d="M3640 330 c0 -5 5 -10 11 -10 5 0 7 5 4 10 -3 6 -8 10 -11 10 -2 0
-4 -4 -4 -10z"/>
<path d="M4117 329 c7 -7 15 -10 18 -7 3 3 -2 9 -12 12 -14 6 -15 5 -6 -5z"/>
<path d="M5650 336 c0 -2 7 -7 16 -10 8 -3 12 -2 9 4 -6 10 -25 14 -25 6z"/>
<path d="M5787 329 c7 -7 15 -10 18 -7 3 3 -2 9 -12 12 -14 6 -15 5 -6 -5z"/>
<path d="M6715 330 c-3 -6 1 -7 9 -4 18 7 21 14 7 14 -6 0 -13 -4 -16 -10z"/>
<path d="M7500 336 c0 -2 7 -7 16 -10 8 -3 12 -2 9 4 -6 10 -25 14 -25 6z"/>
<path d="M5498 323 c7 -3 16 -2 19 1 4 3 -2 6 -13 5 -11 0 -14 -3 -6 -6z"/>
</g>
</svg>
